<svg width="130" height="108" viewBox="0 0 130 108" fill="none" xmlns="http://www.w3.org/2000/svg">
<path d="M34.4219 71.79V72.15C34.4219 72.15 34.4719 72.04 34.4219 71.79Z" fill="#34414F"/>
<path d="M45.5969 46.7598L45.5469 46.8298C45.5469 46.8298 45.5969 46.7698 45.5969 46.7598Z" fill="#34414F"/>
<path d="M33.1953 86.4496C33.1953 86.4496 33.2253 86.3696 33.2353 86.3396C33.3053 86.1496 33.3653 85.9996 33.4353 85.8096L33.1953 86.4496Z" fill="#34414F"/>
<path d="M30.5584 68.8397C31.3584 70.7997 31.5684 72.1197 31.7284 73.4097C31.8684 74.7097 31.9384 76.0497 32.0484 78.3097C32.0484 79.1497 32.0484 80.0097 32.0484 80.8797C32.0484 81.4897 32.0684 82.0897 32.0484 82.7097C32.0484 83.0297 32.0284 83.3397 31.9884 83.6997L31.9184 84.2497L31.7584 84.9297C32.9284 84.8997 33.2984 84.9197 33.5684 84.9597C33.6084 84.9597 33.6584 84.9797 33.6884 84.9897C33.6984 84.9997 33.7284 84.9897 33.7284 85.0197L33.2384 86.3397L33.1184 86.6697L33.0584 86.8397V86.8697L33.0384 86.9597C33.0284 87.0197 33.0184 87.0997 32.9984 87.1697L32.9684 87.2897V87.3197L32.9584 87.3397C33.2384 86.6197 32.3284 88.9397 33.5884 85.7297L33.5684 85.6597C33.5284 85.5697 33.5184 85.4797 33.5084 85.3797V85.2297V85.2097L33.4484 85.3397L33.2984 85.6397L32.9984 86.2497L32.8484 86.5597L32.9784 86.2497L33.2884 85.5397L33.4384 85.1797L33.5184 84.9997C33.5184 84.9997 33.5584 84.9197 33.6284 84.8897C33.8384 84.7997 34.2884 84.7197 34.7384 84.5097L35.1284 84.6297C35.2584 84.5797 35.3784 84.5397 35.5284 84.4897C35.6284 84.4997 35.7284 84.5197 35.8284 84.5297C35.9184 84.5897 36.0484 84.3397 36.1584 84.2697C36.3884 84.0397 36.6084 83.8497 36.8184 83.6997L36.7884 83.7997C37.2184 83.2997 37.6684 82.8897 38.0784 82.5397C38.2384 82.3997 38.3884 82.2797 38.5284 82.1697C38.6184 82.0997 38.6884 82.0297 38.7384 81.9697V82.0297L39.3084 81.5797L39.2484 81.7097C39.9884 80.9697 40.8784 80.4197 41.7884 79.9297L41.5984 79.7897C43.5384 78.8597 43.9584 78.0597 45.7484 77.2797V77.3397C46.6384 76.4497 47.4984 76.0197 48.3784 75.5897C49.2684 75.1497 50.0084 74.8297 50.9784 74.0997C50.7384 74.2797 51.1384 74.1497 51.1384 74.2097C52.0884 73.7197 53.1984 73.3197 53.0884 72.9097C53.8684 72.6697 53.7584 72.8397 53.9084 72.9597C53.8484 72.7797 54.5084 72.4997 55.1284 72.3297L54.8584 72.4797C55.4584 72.2897 56.0084 72.1297 56.5784 71.9997L56.1684 71.7197C57.1284 71.6397 56.4784 72.0897 57.3684 71.8597L57.3184 71.5697C57.6584 71.5397 57.9584 71.5397 58.2584 71.5497C58.3984 71.5597 58.5484 71.5697 58.6984 71.5897C58.9084 71.5897 59.1184 71.6097 59.3284 71.6197C60.1984 71.6597 61.1684 71.6597 62.3484 71.5097L62.5884 71.4597C62.7584 71.0697 62.9784 70.9497 63.0584 70.4097C63.1484 69.9897 63.0784 69.5897 62.9184 69.1497C62.6084 68.2697 61.6584 67.1697 60.9784 66.3297L59.5384 64.7597C59.1084 64.2997 58.6584 63.7197 58.1784 63.1697C56.2884 61.0097 54.3584 59.0297 53.1684 56.8797L53.2284 56.5797C53.4484 56.3497 52.0884 55.7097 52.2284 55.3697L51.7984 54.9497C51.7684 54.7797 51.6484 54.4597 51.8584 54.6697C51.6084 54.2097 51.5584 54.2297 51.2884 53.9397L51.2184 53.3597C50.8584 52.4297 50.5084 51.6397 50.2884 50.7997C50.0384 50.0197 50.0384 48.9497 50.0684 47.8297C50.2684 46.7597 50.1784 44.9997 50.4384 43.9297C50.4584 43.8797 50.4384 43.9097 50.4884 43.7897L50.6884 43.3297C50.7584 43.1197 50.8684 42.8597 50.8784 42.3897C50.9184 41.9397 50.6384 41.2097 50.2284 40.8897L49.3784 40.2197L48.5884 40.6097C47.3184 41.2497 46.6784 42.1897 46.1584 42.8297C45.8884 43.1797 45.6984 43.4297 45.4484 43.6997C45.2084 43.9697 44.9584 44.2197 44.7284 44.4497C43.3584 45.9497 41.3384 47.0197 39.3084 48.0397C38.2984 48.5597 37.2784 49.0697 36.3084 49.6297C35.7984 49.9397 35.4084 50.1497 34.9384 50.3797C34.4784 50.6197 33.9684 50.8797 33.4684 51.1997C33.3084 51.2297 32.9984 51.4997 33.0184 51.5397L29.4984 53.5597C29.4984 53.5597 29.0184 53.8397 28.3284 54.3597C27.7884 54.7797 27.2084 55.0597 25.9684 55.4997C24.6384 56.1197 23.9084 56.7697 23.3184 56.8597C22.5684 57.0097 21.6484 57.0297 21.2184 57.2297V58.7297C21.5584 58.5797 21.6084 58.3997 21.2184 58.1797V57.7797C21.5184 57.9397 22.0084 58.1897 22.8784 58.4197C23.2984 58.5297 23.9284 58.6197 24.6284 58.4697C25.3084 58.3397 26.0084 58.0497 26.6484 57.9097L26.6084 58.0097C26.8384 57.9197 26.9684 57.8897 27.1984 57.8397C27.4484 57.7797 27.6984 57.6997 27.9484 57.6197C28.4384 57.4597 28.9084 57.2497 29.3184 56.9897C29.7484 56.7297 30.0784 56.4297 30.2984 56.2297C30.5484 55.9997 30.8084 55.7597 31.0684 55.4997C31.4684 55.7497 32.5984 54.6697 33.1384 54.5097L33.1184 54.5697C33.6684 54.0497 34.1584 53.8097 34.7684 53.6097C35.3684 53.3997 36.0284 53.2097 36.5884 52.7697C36.5584 52.8197 36.5884 52.9497 36.2984 53.0897C37.2384 52.6197 38.2284 51.7997 38.4284 51.9997C40.3084 50.7597 43.0684 49.2197 44.0384 48.0197L43.9984 48.1297C44.5284 47.4297 44.8584 47.4697 45.5184 46.7797C45.5784 46.7797 45.6384 46.7397 45.6384 46.7597C45.9184 46.3697 46.4184 45.9297 46.9084 45.4897C47.3984 45.0497 47.8684 44.5497 48.0484 44.2597L48.2084 44.3397C48.5784 43.8997 48.9184 43.5097 49.2584 43.2497C49.1184 43.3297 48.9784 43.4397 48.8384 43.5597C48.7184 43.2597 49.2184 43.0797 49.6684 42.9897L48.8584 42.4097C49.0384 42.2197 48.9984 42.4597 48.2684 42.2697C48.2684 42.2697 48.2184 42.4497 48.1584 42.6897C48.0984 42.8097 48.0084 43.0297 47.9784 43.1997C47.7584 44.5597 48.6084 45.6397 48.3984 46.7597C48.6084 47.3597 48.0484 46.2297 48.2184 47.1297C47.9784 47.1597 48.0684 46.7097 47.8784 46.9397C47.9884 47.8197 47.6284 48.3897 47.7984 49.4797L47.6084 49.5297C47.9284 50.9597 47.7684 52.4897 48.4384 53.3297C49.1784 54.6797 48.3384 54.5497 49.4184 55.7797L49.5084 56.4297C49.8184 57.0197 50.0184 56.6797 50.3084 57.3597C50.1384 57.3997 50.7184 58.2197 50.3484 57.9297C51.0984 59.5197 52.6584 60.4897 53.7184 62.3797C54.2584 62.5297 54.8084 63.4597 55.1984 63.5697C55.1384 63.6997 56.5184 65.1997 55.5484 64.4797C55.4684 64.4197 55.3584 64.2797 55.3984 64.2497H55.1684C55.6884 65.3897 56.5784 65.7497 57.4084 66.8297C57.2184 66.5097 56.8784 66.1097 57.1884 66.2997L57.9184 67.1997L57.6484 67.1197C57.9884 67.5597 58.3484 68.0197 58.6084 68.3797C58.6584 68.3297 58.6284 68.1997 58.6384 68.1197C58.8884 68.5797 58.3784 68.4797 58.8384 68.6197C59.1084 68.7297 59.0384 68.4497 59.2684 68.6697C59.2784 68.7497 59.2884 68.8297 59.2484 68.9097C59.2484 69.0197 59.0184 68.9897 58.8884 68.9697C58.7284 68.9497 58.5784 68.9197 58.4384 68.8997C58.4884 68.9997 58.4984 69.0497 58.4684 69.0897C58.4184 69.1297 58.4684 69.1297 58.2184 69.1797L58.1484 68.9997C56.6884 69.4497 57.5584 68.6397 56.0384 69.0997L56.1584 68.9497L55.8184 69.4097C54.4784 70.0897 54.9584 69.1997 53.6184 70.0897C54.1884 69.8997 53.9984 70.3997 53.2784 70.5297L53.4084 70.2997C53.0284 70.4497 52.9184 70.5697 52.6484 70.6097C52.8484 70.4497 52.6884 70.3197 52.1284 70.5397L52.4484 70.1997L51.4684 70.8897C50.5584 70.9997 49.3484 71.8097 48.9084 71.7597C48.9084 71.7597 48.4484 71.9497 47.9784 72.2297C47.4884 72.5097 47.0084 72.8597 46.9184 73.0797C47.1384 72.7397 46.2484 73.2197 46.3884 72.8897C46.0984 73.2997 44.9984 74.1797 44.4184 74.2997L44.4984 74.2197C42.6384 75.1297 41.6684 76.3397 39.9684 77.0997C40.1584 77.2397 39.2684 77.6597 39.6184 77.7597C38.8684 78.3797 38.0184 78.7897 37.3784 79.1797C37.0584 79.3797 36.7784 79.5697 36.5784 79.7897C36.4284 79.9697 36.5184 80.0397 36.5184 80.3197C36.1984 80.6497 36.1184 80.3997 36.0184 80.4397L36.0784 80.3297C36.0784 80.3297 36.0184 80.3997 36.0084 80.4097C35.6784 80.7797 35.5484 80.9297 35.3184 81.1897C35.2984 81.2097 35.2684 81.2497 35.2484 81.2997C35.1484 81.4997 34.9784 81.8997 34.8484 82.2997C34.7884 82.4997 34.7384 82.6997 34.7384 82.8697C34.7384 83.0097 34.7684 82.7997 34.8284 82.6197C34.9584 82.3397 34.9884 82.2097 35.0284 82.0097C35.0284 82.0797 35.0984 81.9297 35.2484 81.4397C35.1984 81.5297 35.1784 81.5597 35.1584 81.5697C35.1584 81.5697 35.1784 81.5197 35.1984 81.4697C35.1684 81.3097 35.1184 81.4397 35.0784 81.6497C35.0584 81.6997 35.0184 81.7797 34.9684 81.9297C35.2284 81.1397 35.0084 80.9097 35.2784 80.4897C35.2484 80.0897 35.1584 79.8197 35.0684 79.3097C34.9684 78.4597 34.8784 77.6497 34.7884 76.8297C34.9184 76.6297 35.0584 77.0297 35.1284 77.5297L35.0284 76.2997C35.2284 76.2997 35.1784 76.9997 35.2284 77.3797C35.5084 75.8897 34.7684 74.3697 34.7184 72.5997L34.4884 72.2697V72.1597C34.4084 72.1797 34.2084 71.8297 34.1184 71.5897C34.2184 71.3097 34.5184 71.4997 34.2684 70.6697C34.2384 69.9497 33.5684 68.8297 33.1184 68.0597C33.2784 68.5097 33.1284 68.4097 32.9884 68.2397C32.8184 67.8497 32.8684 67.5497 32.6584 67.2797L32.8584 67.1397C32.7384 67.3797 32.1484 66.2397 31.9784 66.1497C32.0184 65.8497 32.4284 66.6697 32.5884 66.7097C31.7684 65.1897 32.1884 65.9397 31.2984 64.4597C30.6584 63.7797 31.1984 64.7197 30.7884 64.4597C30.3284 63.8097 29.7284 63.2397 29.1984 62.4697L29.2384 62.8297C28.1084 61.8197 27.4084 61.2897 26.7084 60.5197C24.1484 59.3197 22.6084 59.1197 21.8384 59.0697C21.0584 59.0397 21.0084 59.2797 21.2884 59.6097C21.5684 59.9397 22.1584 60.3497 22.6584 60.6997C23.1784 61.0497 23.5784 61.3297 23.5784 61.3297C26.7984 63.7197 28.2684 64.3797 30.6184 68.8497L30.5584 68.8397Z" fill="#34414F"/>
<path d="M83.2891 25.5295L83.3591 25.0195C83.3591 25.0195 83.2891 25.1595 83.2891 25.5295Z" fill="#34414F"/>
<path d="M97.0019 78.2704L96.9219 78.1504C96.9719 78.2304 96.9919 78.2604 97.0019 78.2704Z" fill="#34414F"/>
<path d="M85.9212 20.4496L85.9013 20.4296L85.7812 20.3496L85.9212 20.4496Z" fill="#34414F"/>
<path d="M85.7991 31.96C86.1591 28.36 86.2291 26.1 86.1791 23.76C86.1591 22.63 86.0291 21.33 85.8991 20.13C85.7591 18.86 85.6491 17.35 85.1791 15.4C84.9191 14.26 84.5591 13.37 84.5191 12.86L80.9391 14.12C82.2791 16.12 83.8191 18.62 85.8991 20.42C87.3291 21.35 89.4091 23.41 91.1491 24.32L91.6591 24.9C91.9591 25.06 92.2791 25.23 92.5891 25.42C92.9091 25.62 93.2791 25.86 93.5691 26.08L93.4991 26.1C94.5291 26.53 95.5091 27.04 95.9491 27.18L95.8891 27.21C96.2391 27.37 96.5691 27.52 96.8791 27.68L96.6791 27.66C97.3891 27.94 97.9791 28.31 98.7191 28.82C99.4091 29.32 100.369 29.87 100.999 30.2L100.979 29.95C102.419 30.81 103.379 31.24 104.259 31.73C104.699 31.97 105.109 32.23 105.529 32.55C106.019 32.92 106.539 33.32 107.209 33.82L107.149 33.84C108.069 34.24 108.839 34.62 109.549 35.01C110.189 35.38 111.079 35.88 111.839 36.16C113.439 36.78 114.939 37.05 116.799 37.24C116.309 37.19 116.979 37.4 116.929 37.44C117.819 37.63 118.869 37.81 119.729 37.76C120.419 37.72 120.969 37.61 120.979 37.4C121.589 37.4 121.889 37.39 122.119 37.38C122.459 37.37 122.429 37.45 122.579 37.51C122.549 37.44 122.789 37.31 122.999 37.19C123.109 37.13 123.219 37.08 123.279 37.06H123.309C123.309 37.06 123.309 37.04 123.309 36.94C123.319 36.79 123.339 36.75 123.339 36.74L122.739 35.43C122.689 35.52 122.609 35.63 122.509 35.74C122.569 35.64 122.619 35.55 122.649 35.46C122.509 35.69 122.209 35.97 121.819 36.31C121.629 36.48 121.419 36.68 121.209 36.92L120.739 37.51L121.369 37.29C120.309 38.43 120.789 37.32 119.909 38.53L120.149 38.7C118.739 40.28 117.549 41.18 116.319 42.94C114.079 46.75 112.539 51.11 111.179 55.27C110.489 57.4 109.819 59.33 109.059 61.47C108.729 62.58 108.529 63.63 108.259 64.57C107.949 65.56 107.689 66.68 107.499 67.7L107.239 68.04C106.879 68.19 107.529 70.38 107.239 70.65L107.349 71.59C107.279 71.85 107.199 72.4 107.149 71.93C107.109 72.8 107.149 72.82 107.229 73.45L106.999 74.37C106.859 76.08 106.859 77.67 106.869 79.27C106.939 80.62 107.009 82.04 106.969 83.56C106.949 83.78 106.929 84.01 106.899 84.25L106.869 84.6L106.849 84.71C106.809 84.84 106.849 85.02 106.679 85.1C106.499 85.1 106.379 84.93 106.239 84.83C106.069 84.68 106.109 84.75 105.479 84.12C104.419 83.05 103.369 81.88 102.339 80.8C101.219 79.64 100.199 78.81 99.5591 78.02C98.6291 77.08 98.2391 75.35 97.2791 73.64C96.3391 72 95.1591 70.58 94.1391 69.18C93.1891 67.88 92.1291 66.11 90.5291 64.85C89.7591 64.23 89.0591 63.78 88.5191 63.32C87.9991 62.86 87.2791 62.2 86.6391 61.69C86.5091 61.5 86.0191 61.18 85.9991 61.21C84.4891 59.78 82.8891 58.37 81.0691 57.18C81.0691 57.18 80.7791 56.98 80.2491 56.68C79.7291 56.37 78.9591 55.96 78.0591 55.57C76.2091 54.78 74.0291 54 71.8191 53.26C71.2891 53.11 71.0291 53.1 70.7491 53.04L70.4491 52.97C70.5191 52.75 70.0991 53.53 69.9291 53.56L69.7991 53.78C69.9291 53.77 69.9691 53.83 70.2091 53.95C70.3091 54.01 70.3591 54.08 70.4591 54.17C70.6391 54.32 70.5691 54.25 70.5891 54.26C70.5891 54.25 70.6591 54.18 70.7091 54.13C70.8391 54.02 70.9991 53.89 71.1591 53.78C71.4891 53.54 71.7991 53.33 72.0791 53.13C72.6291 52.73 73.0191 52.38 73.1191 52.11C73.1491 51.89 72.8591 51.99 72.2291 52.12C71.9191 52.19 71.5091 52.29 70.9991 52.45C70.7391 52.53 70.4591 52.63 70.1391 52.76C69.9791 52.83 69.8191 52.9 69.6391 53.02C69.4791 53.17 69.2191 53.16 69.0691 53.79L69.0391 53.92L69.1491 54.09C69.5191 54.62 69.8791 54.7 70.2191 54.86C70.5491 55 70.9491 55.12 71.1591 55.24C71.8291 55.6 72.5891 56.01 73.4191 56.45H73.2491C76.3891 57.85 78.0991 58.57 80.1191 59.54C80.1791 60.06 82.2191 61.13 82.6991 61.77L82.6191 61.75C83.4791 62.27 84.1991 63.03 84.8891 63.79C85.2391 64.17 85.5791 64.56 85.9391 64.92C86.2591 65.26 86.7891 65.72 87.2391 65.96C87.1491 65.93 87.0391 66.01 86.6391 65.68C87.2891 66.2 88.0491 66.66 88.5391 67.04C89.0391 67.42 89.3091 67.74 89.2691 67.87C89.8291 68.37 90.3791 69.02 90.9491 69.76C91.5391 70.55 92.2291 71.35 92.8391 72.06C94.0891 73.47 95.0991 74.73 95.6691 75.49L95.5491 75.4C96.2991 76.31 96.1691 76.77 96.9291 78.06C96.9291 78.15 96.9691 78.26 96.9491 78.25C97.8791 79.64 99.7491 81.59 100.479 82.27L100.399 82.43L102.209 84.45L101.559 83.66C101.849 83.64 102.129 84.08 102.539 84.68C102.749 84.98 102.989 85.33 103.279 85.67C103.579 86.02 103.879 86.33 104.449 86.79C104.939 87.29 105.489 87.71 105.999 88.01C106.519 88.29 106.949 88.39 107.359 88.45C107.569 88.48 107.799 88.49 108.039 88.38C108.289 88.26 108.399 87.98 108.459 87.73C108.579 87.22 108.569 86.71 108.639 86.23C108.449 85.03 108.959 87.42 108.829 85.72C109.079 85.78 108.959 86.6 109.159 86.28C109.059 84.7 109.409 83.98 109.249 82.08L109.439 82.05C109.279 80.84 109.309 79.66 109.409 78.75C109.509 77.83 109.599 77 109.469 76.28C109.399 74.06 110.079 74.81 109.799 72.5L110.079 71.62C110.159 70.64 109.799 70.9 109.959 69.82C110.109 69.89 110.189 68.5 110.289 69.13C110.509 67.96 110.589 66.79 110.839 65.59C111.169 64.14 111.309 62.73 112.039 61.45C111.999 60.67 112.739 59.17 112.699 58.59C112.859 58.55 113.829 55.48 113.479 57.32C113.449 57.48 113.349 57.74 113.309 57.71L113.409 57.98C114.359 56.33 114.359 54.72 115.059 53.03C114.809 53.51 114.579 54.2 114.619 53.7L115.249 52.12L115.269 52.5L116.289 50.21L115.979 50.45C116.549 49.35 117.009 49.1 117.349 47.75C117.479 47.12 116.619 48.68 117.119 47.49C117.949 46.1 119.259 43.93 120.409 42.38C120.129 42.41 120.429 41.97 120.729 41.51L120.919 41.57C122.079 39.72 121.739 41.21 122.969 39.37L122.949 39.61L123.019 38.9C123.309 38.29 123.629 38.16 123.889 38C124.149 37.82 124.439 37.81 124.999 36.84L125.959 35.18L124.269 34.49C123.699 34.26 122.969 34.32 122.539 34.51C122.889 34.41 123.239 34.43 123.389 34.47C123.549 34.52 123.509 34.56 123.339 34.6C122.989 34.66 122.309 34.93 121.879 35.06C121.929 34.98 121.999 34.89 122.069 34.8C121.769 34.93 121.699 34.97 121.649 35C121.539 35.04 121.419 35.06 121.249 35.05C121.499 34.93 121.429 34.8 120.649 34.82C120.829 34.75 120.999 34.67 121.149 34.59C120.759 34.72 120.099 34.79 119.609 34.89C118.619 34.67 116.559 34.31 116.019 33.97C116.019 33.97 115.309 33.8 114.569 33.65C113.829 33.51 113.069 33.35 112.759 33.39C113.269 33.38 112.039 32.9 112.469 32.82C112.119 32.8 111.699 32.71 110.979 32.35C110.329 32.04 109.699 31.66 109.399 31.37L109.549 31.43C108.919 31.01 108.369 30.63 107.829 30.27C107.539 30.07 107.259 29.88 106.979 29.68C106.669 29.47 106.349 29.28 106.039 29.1C104.779 28.38 103.549 27.86 102.359 27.11C102.359 27.24 102.049 27.11 101.769 26.99C101.509 26.89 101.299 26.81 101.359 27.01C100.229 26.51 99.1191 25.4 98.0391 24.8C96.9991 24.19 96.2291 23.86 95.5891 24.01C94.4091 23.46 94.4591 23.15 93.8891 22.72L94.1691 22.86C92.0991 21.51 91.5291 21.08 90.1091 19.93C89.3591 19.42 88.9791 19.64 87.8291 18.47C88.3291 18.71 87.7991 18.28 87.3891 17.87C87.6791 18.11 87.7891 18.15 87.3291 17.54C87.2191 17.5 87.0791 17.4 86.9591 17.3C86.9591 17.29 86.9591 17.26 86.9691 17.26C86.2791 16.57 86.3591 16.72 86.6391 17.08C86.6091 17.08 86.6091 17.13 86.6691 17.26C86.1291 16.39 84.9091 14.98 85.0591 14.71C84.4791 13.87 83.9291 13.09 83.3891 12.38L80.7791 8.95996L81.4291 13.07C81.6091 14.2 82.0191 14.97 82.2691 15.7C82.5091 16.43 82.6991 17.23 82.8491 18.07C82.7491 18.38 82.5591 17.79 82.3791 17.08C82.4991 17.66 82.5891 18.25 82.6791 18.86C82.4791 18.86 82.4391 17.84 82.3091 17.3C82.3091 18.37 82.5091 19.46 82.7291 20.65C82.9691 21.85 83.1891 22.98 83.1191 24.27L83.3091 24.78L83.2891 24.93C83.3691 24.92 83.5091 25.48 83.5491 25.86C83.3791 26.22 83.1491 25.84 83.1691 27.1C83.0091 28.08 83.1991 29.92 83.1691 31.22C83.2491 30.53 83.3291 30.76 83.3691 31.06C83.3291 31.69 83.1091 32.02 83.1291 32.51L82.8891 32.54C83.1591 32.33 82.9091 34.18 82.9391 34.42C82.7091 34.74 82.9591 33.45 82.8491 33.27C82.4291 35.71 82.6891 34.5 82.0791 36.88C81.8491 38.19 82.3691 36.72 82.3691 37.38C82.0491 38.51 81.7691 39.66 81.0091 40.79L81.3891 40.5C80.4991 42.57 79.6991 43.7 78.6591 44.8C76.5091 48.42 74.8391 50.19 74.1491 51.16C73.4391 52.12 73.6591 52.23 74.2491 52.01C74.8691 51.76 75.8891 51.08 76.6991 50.41C77.5191 49.75 78.1391 49.11 78.1391 49.11C80.6891 46.63 82.1491 44.33 83.3891 41.74C84.6191 39.07 85.3891 36.01 85.7091 31.88L85.7991 31.96Z" fill="#34414F"/>
<path d="M3.5 33.8096V33.9096C3.5 33.9096 3.52 33.8396 3.5 33.8096Z" fill="#34414F"/>
<path d="M3.91062 37.2197L3.89062 37.2297L3.91062 37.2197Z" fill="#34414F"/>
<path d="M1.78834 35.9797C2.32834 36.3697 2.31834 36.8097 2.98834 36.9397C3.25834 37.0997 3.60834 37.1497 3.89834 37.2197C4.15834 36.9897 4.25834 37.3697 4.51834 37.1897V37.3797C4.59834 37.3197 4.67834 37.2897 4.69834 37.3997L4.67834 37.4497C4.80834 37.3597 4.86834 37.4697 4.92834 37.4197L4.90834 37.4697L5.00834 37.4897L4.95834 37.5497C5.14834 37.4697 5.28834 37.5197 5.38834 37.6397L5.46834 37.4397C5.62834 37.7697 5.90834 37.3997 6.00834 37.7697L5.98834 37.8197C6.51834 37.4297 6.26834 38.3797 6.78834 38.0197C6.71834 38.0597 6.75834 38.1297 6.72834 38.1697C6.88834 38.1697 7.03834 38.2197 7.22834 37.8397C7.31834 37.8897 7.24834 37.9997 7.17834 38.1497C7.25834 37.9797 7.38834 37.9597 7.45834 37.9897L7.38834 38.0397L7.62834 38.0997L7.75834 37.7697C7.81834 37.9197 7.57834 38.1597 7.72834 38.1497L7.86834 37.8897C7.99834 38.0197 7.86834 38.4597 7.88834 38.7297C8.36834 39.1697 9.51834 39.0397 9.83834 39.8297L9.74834 40.0297C9.59834 40.3097 10.1683 39.7297 10.0383 39.9897L10.1883 39.9097C10.1883 39.9697 10.1883 40.0497 10.1183 40.0897C10.1783 40.1397 10.2083 40.0897 10.3083 40.0397L10.2783 40.2497C10.4683 40.5397 10.8883 40.3397 11.1283 40.5597C11.2683 41.1097 12.1083 41.1297 12.5883 41.1197C13.3183 40.9397 13.4683 42.4197 14.3483 42.1297C14.3483 42.1797 14.4483 42.0997 14.4583 42.0697C14.6583 42.1497 14.8783 42.2197 15.1183 42.2797C15.1183 42.2797 15.3283 42.3397 15.6983 42.3297C16.0183 42.3297 16.6883 42.2197 17.1283 41.6497C17.5283 41.0597 17.2683 40.6797 16.9283 40.6497C16.7483 40.6197 16.4983 40.6497 16.2583 40.5397C15.9983 40.3797 15.9483 40.2997 15.8583 39.8097C15.8583 39.7897 15.8583 39.7497 15.8583 39.7797C15.8283 39.5297 15.7583 39.5497 15.5583 39.8497C15.6283 39.4297 15.4083 39.7697 15.3783 39.6197V39.5897C15.1683 39.8697 15.1983 39.2397 14.9683 39.4797C14.9883 39.4497 15.0283 39.3397 15.0583 39.3397C14.9383 39.3497 14.7683 39.3897 14.8483 39.1597C14.5883 39.1297 14.2883 38.8697 13.9583 39.1597L13.9983 39.0997C13.7883 39.2997 13.8583 39.0797 13.6983 39.1497C13.6983 39.1197 13.6983 39.0997 13.7183 39.0897C13.4983 39.2797 13.4083 38.9797 13.2683 39.0397L13.3383 38.8897L13.1183 38.8197L13.1783 38.8897C12.9383 39.2797 13.1583 38.5597 12.8783 38.7397C12.7683 38.6197 12.1383 39.4297 12.1083 39.1497C11.9383 39.2997 12.3383 38.8797 12.1583 38.9697C12.2683 38.7597 12.2783 38.8697 12.3483 38.6797C12.1883 38.7197 12.3083 38.3797 12.1083 38.4497L12.1983 38.2897C11.8683 38.4897 12.0183 37.9097 11.7583 38.1197C11.5183 38.1597 11.9283 37.5797 11.5783 37.7897L11.6383 37.5297C11.5883 37.4497 11.4283 37.7597 11.4083 37.6097C11.4983 37.4797 11.3683 37.4397 11.4983 37.3397C11.4483 37.0197 10.9483 37.4197 10.9383 36.9097C10.7183 37.1397 10.6983 36.9097 10.5383 37.0797C10.6083 36.9597 10.3083 36.9097 10.5983 36.7497C10.6183 36.7397 10.6383 36.7497 10.6083 36.7997L10.7183 36.6597C10.7683 36.2797 10.3783 36.6597 10.2683 36.5397C10.2683 36.6197 10.3383 36.6397 10.2283 36.7197L10.1183 36.6197L10.2283 36.5097L10.0883 36.3197L10.0083 36.4997C9.96834 36.3597 10.1183 36.0697 9.84834 36.2197C9.70834 36.3097 9.81834 36.5097 9.66834 36.4797C9.58834 36.2797 9.48834 35.9897 9.33834 35.8397C9.24834 36.0397 9.20834 35.9997 9.12834 36.0097L9.21834 35.8397C8.89834 35.9597 9.34834 35.4397 9.05834 35.5197L9.13834 35.4197L8.89834 35.7297C8.55834 35.9597 8.98834 35.3397 8.55834 35.6797C8.64834 35.6797 8.39834 36.0597 8.34834 35.9397L8.45834 35.7897C8.38834 35.7897 8.33834 35.8597 8.31834 35.8097C8.38834 35.7397 8.45834 35.5797 8.36834 35.5697L8.51834 35.3897L8.22834 35.6097C8.20834 35.3797 7.92834 35.5097 7.98834 35.2597C7.98834 35.2597 7.80834 35.0397 7.63834 35.2597C7.75834 35.1297 7.65834 34.9997 7.77834 34.8397C7.62834 34.9897 7.38834 35.0497 7.40834 34.8397L7.42834 34.8197C7.24834 34.4997 6.85834 34.8797 6.72834 34.5497C6.64834 34.7497 6.57834 34.5897 6.49834 34.8597C6.14834 35.0097 6.27834 34.1597 5.85834 34.9097C5.72834 34.9097 5.80834 34.6697 5.76834 34.6097L5.80834 34.5797C5.57834 34.5597 5.51834 34.5397 5.37834 34.4597C5.26834 34.5097 5.10834 34.8697 5.00834 34.7197C5.10834 34.5897 5.04834 34.5997 4.99834 34.5797C5.03834 34.5797 5.06834 34.5197 5.04834 34.3997C5.01834 34.4397 4.99834 34.4597 4.96834 34.4797C4.96834 34.4697 4.96834 34.4597 4.97834 34.4397C4.87834 34.4597 4.86834 34.5097 4.89834 34.5397C4.88834 34.5597 4.87834 34.5897 4.86834 34.6397C4.86834 34.4197 4.62834 34.5497 4.71834 34.2997C4.44834 34.2497 4.15834 34.4297 3.91834 34.4297C3.95834 34.2897 4.04834 34.1997 4.12834 34.1797L3.96834 34.1597C4.04834 33.9797 4.09834 34.0897 4.15834 34.0797C4.12834 33.7097 3.66834 34.2197 3.60834 33.8497L3.49834 33.9697V33.9397C3.45834 34.0197 3.36834 34.0997 3.32834 34.1097C3.37834 33.9397 3.50834 33.7497 3.40834 33.7097C3.40834 33.5197 3.15834 33.6797 3.01834 33.7097C3.05834 33.7597 2.99834 33.8397 2.94834 33.8797C2.89834 33.8597 2.94834 33.6897 2.87834 33.7397L2.97834 33.5297C2.89834 33.7397 2.74834 33.6797 2.67834 33.7597C2.73834 33.5897 2.81834 33.6597 2.89834 33.5497C2.69834 33.4697 2.79834 33.5097 2.60834 33.4297C2.42834 33.5297 2.51834 33.6397 2.36834 33.7897C2.25834 33.7897 2.08834 33.8797 2.05834 33.6997L1.98834 33.8997C1.73834 33.9397 1.64834 33.8597 1.64834 33.6097C0.578343 33.9397 0.148343 34.3397 0.0383431 34.7097C-0.0816569 35.0797 0.118344 35.3997 0.118344 35.3997C0.438344 36.1597 1.05834 35.8197 1.79834 36.0097L1.78834 35.9797Z" fill="#34414F"/>
<path d="M23.8378 27.6895L23.7578 27.7395C23.7578 27.7395 23.8278 27.7095 23.8378 27.6895Z" fill="#34414F"/>
<path d="M21.1566 28.1598C21.1766 28.6098 20.8366 28.8498 21.1466 29.2098C21.1866 29.4198 21.3566 29.5898 21.4866 29.7498C21.8166 29.7098 21.5966 29.9898 21.8766 29.9698L21.7266 30.0798C21.8266 30.0798 21.8966 30.0798 21.8266 30.1598L21.7766 30.1798C21.9266 30.1798 21.8766 30.2598 21.9466 30.2598L21.8966 30.2798L21.9466 30.3298L21.8766 30.3498C22.0466 30.3698 22.0966 30.4598 22.0766 30.5598L22.2666 30.4598C22.1266 30.7298 22.5666 30.5898 22.3766 30.8698L22.3266 30.8898C22.9266 30.8098 22.1266 31.3598 22.7066 31.2998C22.6366 31.2998 22.6166 31.3598 22.5666 31.3798C22.6666 31.4398 22.7466 31.5098 23.1166 31.3098C23.1466 31.3698 23.0266 31.4198 22.8866 31.5098C23.0566 31.4198 23.1466 31.4398 23.1866 31.4798H23.1066L23.2366 31.5998L23.5366 31.4098C23.4866 31.5298 23.1666 31.6298 23.2766 31.6598L23.5366 31.5198C23.5366 31.6498 23.1766 31.9098 23.0366 32.1098C23.0866 32.3298 23.3266 32.4498 23.5866 32.6798C23.8266 32.8698 24.0166 33.0398 23.9566 33.3798L23.7966 33.5298C23.5466 33.7298 24.2566 33.3498 24.0266 33.5298L24.1766 33.4798C24.1766 33.4798 24.1066 33.5898 24.0366 33.6098C24.0566 33.6598 24.0966 33.6298 24.1966 33.5898L24.0666 33.7498C24.0666 33.9998 24.4566 33.8798 24.5166 34.0698C24.3366 34.4998 24.8766 34.5698 25.1666 34.6198C25.7566 34.6198 24.8466 35.5598 25.4066 35.4798C25.3666 35.5098 25.4666 35.4798 25.4966 35.4598C25.4966 35.5298 25.5266 35.5998 25.5266 35.6598C25.5266 35.6698 25.5666 35.8398 25.8666 35.9098C26.0166 35.9498 26.2666 35.9998 26.6266 35.9798C26.9766 35.9498 27.4966 35.8398 28.0566 35.2898H28.1266C28.2366 34.9898 28.2066 34.8198 27.8266 34.7798C28.2266 34.5998 27.7966 34.5898 27.9066 34.4798H27.9366C27.5766 34.4798 28.0566 34.0798 27.7366 34.0998C27.7666 34.0898 27.8766 34.0298 27.8966 34.0598C27.8066 33.9998 27.6566 33.9298 27.8666 33.7998C27.6966 33.6398 27.6266 33.3098 27.2166 33.4398L27.2766 33.4098C27.0166 33.4998 27.1866 33.3498 27.0266 33.3698C27.0466 33.3498 27.0666 33.3398 27.0766 33.3298C26.8166 33.4198 26.9066 33.1698 26.7766 33.1898L26.9066 33.0898L26.7866 32.9898V33.0598C26.4166 33.3198 26.9466 32.7898 26.6466 32.8898C26.6266 32.7798 25.7766 33.3198 25.8866 33.0998C25.6866 33.1998 26.1866 32.9198 26.0166 32.9598C26.2066 32.8098 26.1566 32.8898 26.2966 32.7598C26.1666 32.7798 26.4166 32.5198 26.2366 32.5498L26.3766 32.4298C26.0366 32.5498 26.4366 32.1098 26.1366 32.2598C25.9466 32.2598 26.5266 31.8598 26.1666 31.9898L26.3366 31.7998C26.3366 31.7398 26.0666 31.9598 26.1366 31.8498C26.2666 31.7598 26.1966 31.7198 26.3366 31.6598C26.4666 31.4198 25.9166 31.6798 26.1766 31.3298C25.9066 31.4798 26.0266 31.3298 25.8166 31.4298C25.9266 31.3498 25.7566 31.3098 26.0466 31.2098C26.0666 31.2098 26.0766 31.2098 26.0266 31.2398L26.1866 31.1498C26.4366 30.9098 25.9666 31.1498 25.9766 31.0698C25.9366 31.1198 25.9566 31.1298 25.8466 31.1798V31.1198L25.9766 31.0598C25.9866 31.0298 25.9966 30.9698 25.9966 30.9198L25.8366 31.0298C25.8866 30.9298 26.1666 30.7498 25.8966 30.8098C25.7466 30.8498 25.6966 30.9898 25.6166 30.9498C25.6866 30.8098 25.7966 30.5998 25.7966 30.4798C25.6166 30.5898 25.6066 30.5598 25.5566 30.5498L25.7166 30.4598C25.4366 30.4798 26.0566 30.2298 25.8266 30.2198L25.9466 30.1698L25.5866 30.3298C25.2066 30.4098 25.8966 30.0998 25.3966 30.2298C25.4466 30.2598 25.0466 30.4398 25.0866 30.3498L25.2566 30.2798C25.2566 30.2798 25.1366 30.2998 25.1566 30.2598C25.2466 30.2298 25.3966 30.1498 25.3466 30.1198L25.5566 30.0398L25.2266 30.1198C25.3666 29.9698 25.1066 29.9898 25.3166 29.8498C25.3166 29.8498 25.3666 29.6698 25.0966 29.7698C25.2666 29.7198 25.2866 29.6198 25.4766 29.5398C25.2866 29.5998 25.0966 29.5798 25.2566 29.4398H25.2766C25.3966 29.1998 24.8966 29.3298 25.0666 29.0898C24.8766 29.1898 24.9466 29.0698 24.7066 29.2098C24.3966 29.1998 25.0966 28.7298 24.3066 29.0498C24.2366 29.0098 24.4566 28.8898 24.4766 28.8498H24.5266C24.4066 28.7598 24.3866 28.7298 24.3766 28.6398C24.2866 28.6398 23.9166 28.7798 23.9666 28.6698C24.1266 28.6298 24.0866 28.6098 24.0666 28.5798C24.0966 28.5798 24.1566 28.5798 24.2366 28.4898C24.1866 28.4998 24.1566 28.5098 24.1366 28.5098C24.1466 28.5098 24.1566 28.5098 24.1766 28.4898C24.1066 28.4698 24.0666 28.4898 24.0566 28.5198C24.0366 28.5198 24.0066 28.5398 23.9666 28.5698C24.1366 28.4398 23.8966 28.4398 24.1466 28.3298C24.0366 28.2198 23.7266 28.2198 23.5866 28.1298C23.7166 28.0698 23.8366 28.0498 23.9066 28.0698L23.8266 28.0098C24.0166 27.9398 23.9566 28.0098 23.9966 28.0298C24.2666 27.8198 23.6166 27.9398 23.8566 27.7298L23.6966 27.7598L23.7166 27.7398C23.6366 27.7698 23.5166 27.7798 23.4866 27.7698C23.6466 27.6998 23.8666 27.6498 23.8466 27.5898C23.9866 27.4998 23.7266 27.4898 23.6166 27.4598C23.5966 27.4998 23.4966 27.5198 23.4366 27.5198C23.4266 27.4898 23.5866 27.4298 23.5066 27.4298L23.7366 27.3598C23.5266 27.4298 23.4866 27.3598 23.3866 27.3598C23.5466 27.2998 23.5466 27.3598 23.6766 27.3398C23.6266 27.2398 23.6566 27.2898 23.6066 27.1798C23.4166 27.1598 23.3966 27.2398 23.1866 27.2598C23.1266 27.2198 22.9566 27.1898 23.0766 27.0998L22.8766 27.1598C22.6966 27.0798 22.7066 26.9998 22.9066 26.8998C22.0066 26.6098 21.4266 26.5098 21.0566 26.6198C20.6966 26.7198 20.5666 26.9998 20.5666 26.9998C20.1766 27.5598 20.8266 27.7198 21.1166 28.1398L21.1566 28.1598Z" fill="#34414F"/>
<path d="M105.789 10.7999H105.879C105.879 10.7999 105.809 10.7799 105.789 10.7999Z" fill="#34414F"/>
<path d="M108.984 10.3301L109.004 10.3401L108.984 10.3301Z" fill="#34414F"/>
<path d="M108.272 11.95C108.502 11.54 108.922 11.53 108.902 11.03C108.992 10.82 108.972 10.56 108.992 10.34C108.722 10.15 109.072 10.06 108.852 9.87H109.042C108.962 9.81 108.922 9.74 109.032 9.73L109.082 9.75C108.972 9.65 109.072 9.6 109.012 9.55L109.062 9.57V9.49L109.132 9.52C109.022 9.37 109.052 9.26 109.132 9.18L108.922 9.13C109.212 8.99 108.812 8.79 109.142 8.68L109.192 8.7C108.712 8.3 109.682 8.44 109.232 8.04C109.292 8.09 109.342 8.06 109.392 8.08C109.362 7.95 109.372 7.82 108.962 7.69C108.992 7.61 109.112 7.66 109.272 7.7C109.092 7.64 109.042 7.55 109.052 7.48L109.112 7.53V7.33L108.762 7.26C108.892 7.19 109.182 7.37 109.132 7.25L108.852 7.16C108.952 7.04 109.392 7.1 109.642 7.04C109.932 6.55 109.412 5.74 110.072 5.42L110.292 5.47C110.602 5.57 109.892 5.18 110.182 5.26L110.062 5.15C110.122 5.15 110.192 5.15 110.252 5.19C110.282 5.14 110.232 5.12 110.152 5.05H110.362C110.582 4.91 110.282 4.61 110.442 4.42C110.922 4.31 110.762 3.7 110.672 3.34C110.392 2.76 111.752 2.82 111.432 2.22C111.482 2.22 111.402 2.15 111.372 2.14L111.572 1.81C111.572 1.81 111.772 1.46 111.692 1.1L110.012 1.59C110.402 1.54 110.832 1.2 110.952 0L110.042 0.27C109.872 0.27 109.692 0.270001 109.492 0.280001L109.432 0.240001C109.182 0.370001 109.082 0.490001 109.332 0.780001C108.932 0.620001 109.212 0.93 109.062 0.92L109.032 0.900001C109.272 1.17 108.662 1.05 108.872 1.3C108.842 1.28 108.732 1.23 108.742 1.2C108.742 1.31 108.782 1.47 108.552 1.38C108.522 1.62 108.282 1.88 108.592 2.18L108.532 2.14C108.752 2.32 108.532 2.26 108.612 2.4C108.582 2.4 108.562 2.4 108.552 2.39C108.762 2.58 108.492 2.66 108.572 2.77L108.412 2.71L108.382 2.9L108.442 2.85C108.862 3.04 108.122 2.87 108.352 3.11C108.252 3.21 109.152 3.69 108.892 3.73C109.072 3.86 108.582 3.56 108.712 3.7C108.492 3.62 108.592 3.61 108.402 3.56C108.472 3.68 108.122 3.61 108.232 3.77L108.052 3.71C108.322 3.97 107.722 3.88 107.992 4.09C108.082 4.28 107.442 4 107.732 4.27L107.472 4.24C107.412 4.29 107.742 4.39 107.602 4.42C107.452 4.36 107.452 4.47 107.322 4.37C107.032 4.45 107.542 4.81 107.072 4.88C107.352 5.03 107.142 5.07 107.342 5.18C107.212 5.14 107.252 5.38 107.012 5.18C106.992 5.16 107.012 5.15 107.052 5.16L106.882 5.09C106.512 5.09 106.982 5.37 106.902 5.47C106.972 5.45 106.972 5.4 107.082 5.47L107.022 5.57L106.882 5.5L106.742 5.64L106.932 5.68C106.812 5.73 106.492 5.66 106.722 5.83C106.852 5.92 106.992 5.83 107.022 5.94C106.862 6.01 106.622 6.11 106.522 6.23C106.732 6.28 106.712 6.32 106.742 6.37L106.562 6.32C106.762 6.54 106.152 6.25 106.302 6.46L106.182 6.41L106.542 6.57C106.852 6.81 106.152 6.52 106.582 6.82C106.572 6.75 106.982 6.92 106.882 6.96L106.712 6.89C106.732 6.94 106.802 6.98 106.762 6.99C106.672 6.94 106.512 6.9 106.532 6.97L106.332 6.86L106.612 7.07C106.402 7.1 106.592 7.3 106.342 7.26C106.342 7.26 106.172 7.4 106.422 7.53C106.272 7.44 106.172 7.53 105.992 7.44C106.162 7.54 106.272 7.73 106.062 7.72L106.042 7.7C105.772 7.84 106.212 8.13 105.912 8.24C106.122 8.29 105.982 8.36 106.252 8.41C106.462 8.68 105.612 8.6 106.412 8.9C106.432 9 106.192 8.95 106.132 8.98L106.092 8.95C106.112 9.13 106.102 9.18 106.052 9.29C106.112 9.37 106.492 9.49 106.372 9.57C106.232 9.49 106.242 9.54 106.232 9.58C106.212 9.55 106.162 9.52 106.042 9.55C106.092 9.57 106.112 9.59 106.132 9.61C106.122 9.61 106.112 9.61 106.092 9.61C106.122 9.69 106.172 9.69 106.202 9.67C106.222 9.67 106.252 9.68 106.302 9.69C106.082 9.7 106.262 9.89 105.992 9.82C105.992 10.04 106.222 10.26 106.272 10.45C106.132 10.43 106.022 10.36 105.982 10.29L106.002 10.42C105.812 10.36 105.912 10.32 105.882 10.27C105.532 10.32 106.112 10.65 105.772 10.73L105.912 10.81H105.882C105.962 10.84 106.062 10.9 106.082 10.94C105.912 10.91 105.692 10.83 105.682 10.91C105.502 10.93 105.712 11.12 105.772 11.23C105.812 11.19 105.902 11.23 105.952 11.27C105.952 11.31 105.772 11.29 105.832 11.34L105.602 11.28C105.822 11.33 105.802 11.45 105.892 11.49C105.722 11.46 105.762 11.39 105.642 11.34C105.612 11.51 105.632 11.42 105.602 11.59C105.752 11.73 105.822 11.64 106.012 11.74C106.032 11.83 106.172 11.95 106.012 12L106.222 12.03C106.332 12.22 106.292 12.3 106.052 12.34C107.372 13.9 108.222 13.22 108.222 13.22C108.792 12.92 108.272 12.53 108.262 11.98L108.272 11.95Z" fill="#34414F"/>
<path d="M120.562 12.4395L120.642 12.4895C120.642 12.4895 120.592 12.4395 120.562 12.4395Z" fill="#34414F"/>
<path d="M126.448 7.96922C126.448 7.96922 126.447 7.96922 126.438 7.94922L126.448 7.96922Z" fill="#34414F"/>
<path d="M121.911 14.8095C122.291 14.6395 122.621 14.8995 122.851 14.5095C123.031 14.4095 123.141 14.2095 123.261 14.0495C123.141 13.7395 123.461 13.8895 123.381 13.6095L123.521 13.7295C123.491 13.6295 123.491 13.5595 123.581 13.6095L123.611 13.6495C123.571 13.5095 123.671 13.5295 123.651 13.4595L123.681 13.4995L123.721 13.4395L123.761 13.5095C123.751 13.3395 123.821 13.2595 123.931 13.2595L123.791 13.0895C124.091 13.1595 123.871 12.7595 124.181 12.8895L124.211 12.9295C124.031 12.3395 124.721 13.0195 124.561 12.4595C124.581 12.5295 124.641 12.5395 124.671 12.5795C124.711 12.4695 124.781 12.3695 124.511 12.0395C124.571 11.9995 124.641 12.1095 124.751 12.2295C124.631 12.0795 124.641 11.9795 124.681 11.9395L124.701 12.0095L124.791 11.8595L124.541 11.5995C124.671 11.6195 124.831 11.9195 124.841 11.7995L124.661 11.5695C124.791 11.5395 125.131 11.8495 125.351 11.9595C125.811 11.7995 125.791 10.9095 126.451 11.0795L126.591 11.2495C126.781 11.5095 126.421 10.7895 126.601 11.0295L126.561 10.8795C126.561 10.8795 126.661 10.9495 126.681 11.0295C126.731 11.0095 126.701 10.9695 126.671 10.8695L126.821 11.0095C127.061 11.0295 126.971 10.6195 127.181 10.5795C127.391 10.6795 127.521 10.5995 127.641 10.4295C127.971 10.1295 127.971 9.86952 128.031 9.67952C128.031 9.34952 128.331 9.30952 128.651 9.21952C128.961 9.12952 129.291 8.97952 129.191 8.59952C129.241 8.59952 129.171 8.51952 129.141 8.49952C129.231 8.35952 129.321 8.21952 129.401 8.06952C129.401 8.06952 129.471 7.92952 129.501 7.71952C129.541 7.50952 129.531 7.22952 129.401 7.01952C129.271 6.79952 129.041 6.66952 128.681 6.68952C128.321 6.68952 127.821 6.85952 127.121 6.86952L127.051 6.84952C126.861 6.90952 126.811 6.92952 127.101 7.14952C126.701 6.98952 127.021 7.21952 126.881 7.18952L126.851 7.16952C127.111 7.39952 126.541 7.16952 126.761 7.37952C126.731 7.35952 126.631 7.28952 126.641 7.27952C126.661 7.34952 126.701 7.46952 126.491 7.32952C126.471 7.46952 126.271 7.52952 126.501 7.86952L126.451 7.81952C126.611 8.03952 126.431 7.89952 126.491 8.03952C126.461 8.01952 126.451 8.00952 126.441 7.99952C126.591 8.22952 126.341 8.14952 126.381 8.26952L126.271 8.14952C126.271 8.14952 126.251 8.19952 126.241 8.22952H126.281C126.561 8.60952 126.061 8.04952 126.201 8.30952C126.081 8.31952 126.541 9.23952 126.321 9.10952C126.391 9.31952 126.171 8.78952 126.191 8.96952C126.061 8.76952 126.141 8.81952 126.021 8.67952C126.021 8.81952 125.781 8.54952 125.791 8.73952L125.681 8.58952C125.761 8.93952 125.341 8.51952 125.461 8.83952C125.441 9.03952 125.071 8.42952 125.171 8.80952L124.981 8.62952C124.911 8.62952 125.121 8.90952 125.001 8.83952C124.911 8.70952 124.861 8.77952 124.801 8.63952C124.531 8.51952 124.761 9.09952 124.351 8.86952C124.501 9.13952 124.311 9.04952 124.421 9.25952C124.341 9.14952 124.241 9.34952 124.161 9.05952C124.161 9.03952 124.171 9.02952 124.201 9.06952L124.101 8.90952C123.801 8.69952 124.041 9.17952 123.921 9.19952C123.981 9.22952 124.011 9.19952 124.061 9.30952L123.961 9.34952L123.881 9.20952L123.701 9.22952L123.831 9.36952C123.711 9.32952 123.491 9.08952 123.581 9.35952C123.641 9.49952 123.801 9.51952 123.771 9.61952C123.611 9.56952 123.361 9.50952 123.221 9.52952C123.361 9.68952 123.331 9.70952 123.331 9.75952L123.211 9.61952C123.261 9.89952 122.921 9.32952 122.941 9.56952L122.871 9.45952L123.091 9.78952C123.231 10.1495 122.801 9.52952 123.011 9.99952C123.031 9.93952 123.281 10.3095 123.181 10.2795L123.081 10.1295C123.081 10.1795 123.111 10.2495 123.081 10.2295C123.041 10.1395 122.931 10.0195 122.911 10.0695L122.801 9.86952L122.931 10.1895C122.751 10.0795 122.811 10.3495 122.631 10.1695C122.631 10.1695 122.431 10.1695 122.571 10.4095C122.491 10.2495 122.381 10.2595 122.271 10.0795C122.361 10.2595 122.361 10.4595 122.191 10.3295V10.3095C121.911 10.2495 122.121 10.7295 121.831 10.6295C121.971 10.7995 121.831 10.7595 122.021 10.9595C122.061 11.2795 121.441 10.7095 121.911 11.4195C121.881 11.4995 121.721 11.3195 121.661 11.3095V11.2595C121.581 11.3995 121.551 11.4395 121.451 11.4895C121.451 11.5895 121.701 11.9095 121.561 11.8895C121.491 11.7495 121.481 11.7895 121.451 11.8195C121.451 11.7895 121.421 11.7395 121.321 11.6795C121.341 11.7195 121.361 11.7495 121.361 11.7795C121.361 11.7795 121.351 11.7595 121.341 11.7495C121.331 11.8295 121.371 11.8595 121.401 11.8595C121.411 11.8795 121.431 11.8995 121.471 11.9295C121.301 11.8095 121.341 12.0495 121.171 11.8395C121.071 11.9995 121.141 12.2995 121.091 12.4795C120.991 12.3795 120.941 12.2595 120.951 12.1895L120.901 12.2995C120.781 12.1395 120.881 12.1695 120.881 12.1195C120.581 11.9395 120.881 12.5395 120.581 12.3895L120.651 12.5395L120.631 12.5195C120.681 12.5895 120.721 12.6995 120.721 12.7295C120.601 12.5995 120.481 12.4095 120.431 12.4595C120.281 12.3595 120.351 12.6295 120.351 12.7495C120.401 12.7495 120.451 12.8295 120.471 12.8895C120.451 12.9195 120.321 12.7895 120.351 12.8695L120.201 12.6795C120.351 12.8495 120.271 12.9295 120.321 13.0195C120.201 12.8895 120.271 12.8595 120.201 12.7495C120.101 12.8595 120.151 12.7995 120.051 12.9095C120.101 13.0995 120.201 13.0795 120.291 13.2695C120.261 13.3495 120.311 13.5195 120.161 13.4595L120.311 13.6095C120.311 13.8195 120.231 13.8495 120.031 13.7295C120.291 15.6995 121.271 15.7195 121.271 15.7195C121.851 15.8495 121.641 15.2395 121.901 14.8195L121.911 14.8095Z" fill="#34414F"/>
<path d="M87.0275 95.1201H86.9375C86.9375 95.1201 87.0075 95.1401 87.0275 95.1201Z" fill="#34414F"/>
<path d="M83.7991 95.5295L83.7891 95.5195L83.7991 95.5295Z" fill="#34414F"/>
<path d="M84.6407 93.7898C84.3607 94.2398 83.9407 94.2398 83.9307 94.7898C83.8207 95.0198 83.8307 95.2998 83.8107 95.5298C84.0807 95.7298 83.7207 95.8298 83.9407 96.0298H83.7507C83.8207 96.0998 83.8707 96.1598 83.7607 96.1798L83.7107 96.1598C83.8207 96.2698 83.7207 96.3098 83.7807 96.3598L83.7307 96.3398V96.4198L83.6607 96.3798C83.7607 96.5298 83.7407 96.6498 83.6407 96.7298L83.8507 96.7898C83.5507 96.9298 83.9607 97.1398 83.6207 97.2498L83.5707 97.2298C84.0407 97.6498 83.0807 97.4798 83.5107 97.8998C83.4607 97.8498 83.4007 97.8798 83.3507 97.8598C83.3707 97.9898 83.3507 98.1198 83.7607 98.2598C83.7307 98.3398 83.6107 98.2798 83.4507 98.2398C83.6307 98.2998 83.6707 98.3998 83.6607 98.4698L83.6007 98.4198V98.6198L83.9407 98.7098C83.8107 98.7698 83.5307 98.5798 83.5707 98.7098L83.8407 98.8098C83.7307 98.9198 83.2907 98.8398 83.0407 98.8798C82.7207 99.3198 83.1307 100.3 82.4707 100.61L82.2607 100.56C81.9607 100.46 82.6507 100.87 82.3707 100.79L82.4907 100.9C82.4307 100.9 82.3607 100.91 82.3007 100.86C82.2707 100.91 82.3207 100.93 82.3907 101H82.1807C81.9507 101.16 82.2507 101.47 82.0907 101.67C81.6107 101.8 81.7707 102.42 81.8507 102.79C82.1207 103.39 80.7607 103.28 81.0707 103.87C81.0207 103.86 81.1007 103.94 81.1307 103.96C81.0607 104.06 80.9907 104.16 80.9107 104.25C80.9107 104.25 80.6707 104.59 80.7507 104.97C80.8507 105.32 81.1807 105.97 82.7807 106.03L82.8307 106.08C83.1307 105.96 83.2507 105.82 83.0407 105.49C83.4307 105.69 83.1907 105.33 83.3407 105.35L83.3707 105.37C83.1507 105.07 83.7707 105.21 83.5807 104.94C83.6107 104.96 83.7107 105.02 83.7007 105.05C83.7007 104.93 83.6807 104.75 83.9107 104.85C83.9707 104.59 84.2207 104.3 83.9107 103.99L83.9707 104.03C83.7607 103.84 83.9807 103.9 83.9007 103.76C83.9307 103.76 83.9507 103.76 83.9607 103.77C83.7507 103.58 84.0307 103.49 83.9607 103.37L84.1207 103.43L84.1607 103.23L84.1007 103.28C83.6807 103.09 84.4207 103.25 84.2007 103.01C84.3007 102.91 83.4007 102.42 83.6607 102.38C83.4807 102.24 83.9707 102.56 83.8507 102.41C84.0707 102.49 83.9707 102.5 84.1607 102.55C84.0907 102.42 84.4407 102.49 84.3307 102.33L84.5107 102.39C84.2407 102.13 84.8407 102.21 84.5707 102C84.4807 101.8 85.1207 102.1 84.8407 101.82L85.1007 101.85C85.1607 101.8 84.8307 101.7 84.9707 101.67C85.1207 101.73 85.1207 101.63 85.2507 101.72C85.5407 101.65 85.0407 101.27 85.5107 101.22C85.2407 101.06 85.4507 101.03 85.2507 100.91C85.3807 100.95 85.3507 100.72 85.5807 100.94C85.6007 100.96 85.5807 100.97 85.5407 100.95L85.7107 101.03C86.0807 101.05 85.6107 100.75 85.7107 100.67C85.6407 100.67 85.6407 100.73 85.5307 100.65L85.5907 100.56L85.7207 100.64L85.8607 100.53L85.6807 100.48C85.8007 100.45 86.1107 100.55 85.9007 100.34C85.7807 100.24 85.6307 100.32 85.6107 100.21C85.7807 100.15 86.0307 100.04 86.1407 99.9098C85.9307 99.8498 85.9607 99.8098 85.9307 99.7498L86.1107 99.8098C85.9307 99.5598 86.5207 99.8998 86.3807 99.6698L86.5007 99.7298L86.1507 99.5498C85.8607 99.2798 86.5407 99.6098 86.1207 99.2798C86.1207 99.3498 85.7207 99.1698 85.8307 99.1198L85.9907 99.1998C85.9707 99.1498 85.9007 99.1098 85.9507 99.0898C86.0307 99.1498 86.1907 99.1898 86.1907 99.1198L86.3907 99.2398L86.1207 99.0098C86.3307 98.9798 86.1507 98.7598 86.4107 98.8098C86.4107 98.8098 86.5907 98.6598 86.3407 98.5298C86.4907 98.6198 86.5907 98.5298 86.7707 98.6298C86.6007 98.5198 86.5007 98.3198 86.7107 98.3298L86.7307 98.3498C87.0007 98.1998 86.5707 97.8898 86.8807 97.7798C86.6707 97.7198 86.8107 97.6598 86.5407 97.5998C86.3407 97.3198 87.1907 97.4098 86.3907 97.0898C86.3707 96.9898 86.6107 97.0398 86.6707 97.0098L86.7107 97.0398C86.6907 96.8498 86.7107 96.7998 86.7607 96.6898C86.7007 96.5998 86.3207 96.4798 86.4507 96.3998C86.5907 96.4798 86.5807 96.4298 86.5907 96.3898C86.6107 96.4198 86.6607 96.4498 86.7807 96.4298C86.7407 96.4098 86.7107 96.3898 86.6907 96.3698C86.7007 96.3698 86.7107 96.3698 86.7307 96.3798C86.7007 96.2998 86.6507 96.2898 86.6207 96.3198C86.6007 96.3198 86.5707 96.2998 86.5207 96.2998C86.7407 96.2998 86.5707 96.0998 86.8307 96.1698C86.8307 95.9498 86.6107 95.7198 86.5707 95.5198C86.7107 95.5498 86.8107 95.6198 86.8507 95.6898V95.5598C87.0307 95.6198 86.9307 95.6598 86.9507 95.7098C87.3007 95.6698 86.7407 95.3198 87.0807 95.2498L86.9407 95.1598H86.9707C86.8907 95.1298 86.8007 95.0598 86.7807 95.0198C86.9507 95.0498 87.1607 95.1498 87.1807 95.0698C87.3607 95.0698 87.1607 94.8698 87.1107 94.7498C87.0707 94.7798 86.9807 94.7398 86.9307 94.6998C86.9307 94.6598 87.1107 94.6998 87.0507 94.6398L87.2707 94.7198C87.0607 94.6598 87.0807 94.5298 87.0007 94.4798C87.1707 94.5198 87.1207 94.5898 87.2407 94.6498C87.2807 94.4898 87.2607 94.5698 87.3007 94.3998C87.1707 94.2498 87.0907 94.3298 86.9107 94.2198C86.9007 94.1298 86.7707 93.9898 86.9407 93.9598L86.7407 93.9098C86.6507 93.7098 86.7107 93.6298 86.9407 93.6198C86.3907 92.7498 85.9107 92.4198 85.5407 92.3398C85.1707 92.2598 84.9207 92.4398 84.9207 92.4398C84.2807 92.7298 84.7407 93.2198 84.6907 93.8298L84.6407 93.7898Z" fill="#34414F"/>
<path d="M100.814 96.4102L100.734 96.4502C100.734 96.4502 100.804 96.4402 100.814 96.4102Z" fill="#34414F"/>
<path d="M98.0914 96.1804C98.0214 96.6604 97.6214 96.8303 97.8314 97.3103C97.8314 97.5503 97.9514 97.7904 98.0214 98.0104C98.3514 98.0704 98.0714 98.3003 98.3514 98.3903L98.1814 98.4603C98.2814 98.4903 98.3414 98.5303 98.2614 98.5903H98.2114C98.3514 98.6403 98.2914 98.7203 98.3614 98.7403H98.3114L98.3414 98.8204H98.2614C98.4214 98.9104 98.4514 99.0203 98.4014 99.1303L98.6114 99.0903C98.4114 99.3403 98.8614 99.3503 98.6114 99.5903H98.5614C99.1714 99.7403 98.2414 100.05 98.8214 100.2C98.7514 100.18 98.7114 100.23 98.6614 100.24C98.7414 100.34 98.8014 100.46 99.2214 100.38C99.2214 100.46 99.1014 100.47 98.9414 100.51C99.1214 100.48 99.2114 100.53 99.2414 100.59L99.1614 100.57L99.2614 100.74L99.6014 100.64C99.5214 100.76 99.1814 100.74 99.2814 100.82L99.5714 100.76C99.5414 100.9 99.1214 101.07 98.9314 101.24C98.9114 101.8 99.7514 102.23 99.3314 102.82L99.1214 102.88C98.8014 102.94 99.6114 102.93 99.3214 103H99.4714C99.4114 103.03 99.3614 103.06 99.2814 103.05C99.2814 103.08 99.3214 103.08 99.4214 103.09L99.2314 103.16C99.0914 103.35 99.4914 103.49 99.4314 103.72C99.0414 104.02 99.4614 104.52 99.7114 104.81C100.231 105.17 99.0314 105.88 99.6814 106.31C99.6414 106.34 99.7514 106.36 99.7914 106.35C99.8114 106.5 99.8414 106.67 99.8814 106.85C99.8814 106.82 99.9914 107.53 100.801 107.93C101.231 108.11 101.631 107.96 101.641 107.59C101.671 107.41 101.671 107.16 101.781 106.94C101.881 106.7 102.111 106.51 102.381 106.3L102.441 106.27C102.571 106.15 102.581 106.09 102.221 106.09C102.631 105.95 102.221 105.97 102.351 105.88H102.381C102.031 105.85 102.601 105.62 102.291 105.57C102.321 105.57 102.441 105.55 102.451 105.57C102.381 105.51 102.271 105.42 102.521 105.37C102.421 105.2 102.501 104.91 102.091 104.83H102.161C101.881 104.79 102.111 104.74 101.961 104.67C101.991 104.67 102.011 104.65 102.021 104.65C101.751 104.6 101.951 104.41 101.831 104.36L102.001 104.34L101.951 104.18L101.921 104.25C101.461 104.27 102.201 104.1 101.891 104C101.941 103.88 100.921 103.84 101.131 103.7C100.911 103.66 101.481 103.72 101.311 103.65C101.551 103.63 101.461 103.68 101.651 103.65C101.531 103.57 101.881 103.49 101.711 103.4L101.901 103.38C101.551 103.27 102.121 103.09 101.791 103.02C101.621 102.87 102.331 102.87 101.941 102.71L102.181 102.59C102.211 102.49 101.871 102.57 101.971 102.48C102.131 102.46 102.081 102.37 102.231 102.38C102.451 102.18 101.831 102.12 102.201 101.84C101.891 101.85 102.051 101.71 101.811 101.72C101.941 101.69 101.791 101.51 102.101 101.57C102.131 101.57 102.121 101.59 102.071 101.6L102.251 101.58C102.571 101.4 102.021 101.4 102.051 101.27C102.001 101.32 102.021 101.36 101.891 101.35V101.24H102.051L102.111 101.06L101.931 101.12C102.011 101.02 102.331 100.93 102.041 100.9C101.881 100.89 101.801 101.02 101.731 100.95C101.841 100.82 102.001 100.63 102.031 100.48C101.821 100.53 101.821 100.5 101.771 100.47L101.951 100.43C101.671 100.34 102.341 100.3 102.111 100.2H102.241L101.851 100.22C101.461 100.16 102.221 100.08 101.701 100.03C101.741 100.08 101.301 100.13 101.371 100.05L101.551 100.03C101.551 100.03 101.431 100 101.461 99.9704C101.561 99.9704 101.721 99.9303 101.681 99.8803H101.911L101.571 99.8304C101.741 99.7104 101.481 99.6304 101.731 99.5504C101.731 99.5504 101.821 99.3604 101.541 99.3704C101.721 99.3704 101.761 99.2704 101.971 99.2604C101.771 99.2604 101.591 99.1503 101.781 99.0603H101.801C101.971 98.8403 101.461 98.7903 101.681 98.5704C101.471 98.6104 101.571 98.5004 101.301 98.5704C101.001 98.4304 101.811 98.1604 100.951 98.2204C100.891 98.1504 101.131 98.0904 101.171 98.0504H101.221C101.131 97.9204 101.121 97.8804 101.121 97.7604C101.031 97.7204 100.631 97.7603 100.721 97.6403C100.881 97.6503 100.851 97.6104 100.841 97.5804C100.871 97.6004 100.931 97.6004 101.021 97.5404C100.971 97.5404 100.941 97.5403 100.911 97.5303C100.921 97.5303 100.931 97.5303 100.951 97.5303C100.891 97.4703 100.841 97.4903 100.821 97.5303C100.801 97.5303 100.771 97.5304 100.721 97.5504C100.911 97.4604 100.681 97.3704 100.951 97.3304C100.861 97.1504 100.571 97.0403 100.451 96.8903C100.591 96.8603 100.711 96.8903 100.771 96.9203L100.711 96.8103C100.911 96.7903 100.831 96.8603 100.871 96.8903C101.181 96.7303 100.521 96.6503 100.801 96.4603L100.641 96.4404H100.671C100.591 96.4404 100.471 96.4103 100.441 96.3903C100.611 96.3503 100.841 96.3604 100.831 96.2904C100.991 96.2204 100.731 96.1204 100.631 96.0504C100.601 96.0904 100.511 96.0904 100.441 96.0704C100.441 96.0304 100.611 96.0004 100.531 95.9704L100.771 95.9503C100.551 95.9803 100.531 95.8603 100.431 95.8503C100.601 95.8203 100.581 95.9003 100.721 95.9103C100.691 95.7603 100.711 95.8304 100.681 95.6804C100.501 95.6004 100.461 95.7004 100.251 95.6804C100.201 95.6104 100.041 95.5403 100.181 95.4503L99.9714 95.4803C99.8014 95.3403 99.8314 95.2503 100.041 95.1603C99.1914 94.6303 98.6114 94.5304 98.2414 94.6104C97.8714 94.6804 97.7114 94.9203 97.7114 94.9203C97.2414 95.4003 97.8614 95.6403 98.0514 96.1703L98.0914 96.1804Z" fill="#34414F"/>
</svg>
