<svg width="29" height="38" viewBox="0 0 29 38" fill="none" xmlns="http://www.w3.org/2000/svg">
<path d="M2.40451 0.585465C1.89942 0.362062 1.30887 0.59041 1.08546 1.09549C0.862062 1.60058 1.09041 2.19113 1.59549 2.41454L2 1.5L2.40451 0.585465ZM2.09145 1.54045L1.68695 2.45499L1.90666 2.55217L2.14653 2.53893L2.09145 1.54045ZM2.39407 1.52376L2.33899 0.525275L2.39407 1.52376ZM2.77223 1.73181L1.82435 2.05044L2.77223 1.73181ZM2.84778 1.95655L1.8999 2.27518L2.84778 1.95655ZM2.92333 2.18129L3.8712 1.86266L2.92333 2.18129ZM3.63374 2.15732L3.99851 3.08841L3.63374 2.15732ZM4.01879 2.07786L3.99889 3.07766L4.01879 2.07786ZM4.63311 2.27113L3.74377 2.72838L4.63311 2.27113ZM5.05925 2.88986L4.62219 3.7893L5.05925 2.88986ZM5.20325 2.95984L5.64031 2.0604L5.20325 2.95984ZM5.34725 3.02981L4.91019 3.92924L5.34725 3.02981ZM5.68586 3.05535L5.90845 4.03027L5.68586 3.05535ZM6.39705 3.02963L7.04227 2.26564L6.39705 3.02963ZM6.52442 3.1372L5.8792 3.90119L6.52442 3.1372ZM6.65179 3.24477L6.00657 4.00876L6.65179 3.24477ZM6.9127 3.84152L7.8774 3.57817L6.9127 3.84152ZM6.97947 4.08611L6.01477 4.34946L6.97947 4.08611ZM7.30305 4.14563L6.71841 3.33434L7.30305 4.14563ZM8.1842 3.73565L7.38898 4.34198L8.1842 3.73565ZM8.40564 4.02608L9.20085 3.41975L8.40564 4.02608ZM8.70666 4.1366L8.5273 3.15282L8.70666 4.1366ZM8.89696 4.10191L8.71759 3.11812L8.89696 4.10191ZM9.08726 4.06721L9.26662 5.05099L9.08726 4.06721ZM9.34183 4.28275L8.37326 4.53151L9.34183 4.28275ZM9.47036 4.78323L10.4389 4.53447L9.47036 4.78323ZM9.70301 5.04833L9.61512 6.04446L9.70301 5.04833ZM10.0398 5.07805L10.1277 4.08192L10.0398 5.07805ZM10.3761 5.10865L10.4695 4.11302L10.3761 5.10865ZM11.0682 5.12621L10.9123 4.13844L11.0682 5.12621ZM11.4444 5.06683L11.6003 6.0546L11.4444 5.06683ZM11.6599 5.37071L12.6565 5.2888L11.6599 5.37071ZM11.6873 5.70427L10.6906 5.78618L11.6873 5.70427ZM11.7147 6.03784L10.718 6.11975L11.7147 6.03784ZM12.0064 6.16928L12.6139 6.96367L12.0064 6.16928ZM12.5352 5.76502L11.9278 4.97062L12.5352 5.76502ZM12.8825 5.77092L11.9535 6.14124L12.8825 5.77092ZM12.9654 5.97896L12.0365 6.34928L12.9654 5.97896ZM13.0483 6.18699L12.1194 6.55731L13.0483 6.18699ZM13.3139 6.37764L13.2191 5.38214L13.3139 6.37764ZM13.6792 6.34286L13.774 7.33836L13.6792 6.34286ZM13.9119 6.60782L14.8965 6.43322L13.9119 6.60782ZM13.962 6.89017L12.9773 7.06477L13.962 6.89017ZM14.012 7.17252L14.9967 6.99792L14.012 7.17252ZM14.3332 7.23745L13.7076 6.45732L14.3332 7.23745ZM15.2578 6.72933L16.0495 6.11845L15.2578 6.72933ZM15.4802 7.01758L14.6885 7.62845L15.4802 7.01758ZM15.7233 7.2591L15.1292 8.06351L15.7233 7.2591ZM15.8551 7.3565L16.4492 6.55209L15.8551 7.3565ZM15.987 7.45389L15.3929 8.25829L15.987 7.45389ZM16.2764 7.59072L16.5192 6.62065L16.2764 7.59072ZM16.5914 7.66958L16.3486 8.63964L16.5914 7.66958ZM16.8117 7.96265L15.841 8.20287L16.8117 7.96265ZM16.9372 8.46992L17.9079 8.2297L16.9372 8.46992ZM17.2078 8.64934L17.5442 9.59106L17.2078 8.64934ZM17.6233 8.5009L17.9597 9.44262L17.6233 8.5009ZM17.9826 8.47978L17.6518 9.42347L17.9826 8.47978ZM18.2855 8.58597L17.9547 9.52967L18.2855 8.58597ZM18.6475 9.34964L17.6888 9.63376L18.6475 9.34964ZM18.9651 9.42272L19.5172 10.2565L18.9651 9.42272ZM19.2125 9.25893L18.6605 8.4251L19.2125 9.25893ZM19.4599 9.09515L20.0119 9.92897L19.4599 9.09515ZM19.8207 9.07058L19.0453 9.70203L19.8207 9.07058ZM19.9341 9.20981L19.1586 9.84125L19.9341 9.20981ZM20.0474 9.34903L20.8229 8.71758L20.0474 9.34903ZM20.2688 9.63974L19.4544 10.2201L20.2688 9.63974ZM20.3767 9.79122L21.1911 9.21089L20.3767 9.79122ZM20.4847 9.94271L21.299 9.36238L20.4847 9.94271ZM20.7933 10.0361L21.0716 10.9966L20.7933 10.0361ZM21.1946 9.91977L20.9163 8.95928L21.1946 9.91977ZM21.5462 9.91608L21.8856 8.97545L21.5462 9.91608ZM21.8479 10.025L21.5085 10.9656L21.8479 10.025ZM22.0539 10.3503L21.074 10.5497L22.0539 10.3503ZM22.1642 10.8921L23.1441 10.6926L22.1642 10.8921ZM22.7552 10.7424L22.1379 9.9557L22.7552 10.7424ZM23.0232 10.5321L23.6406 11.3187L23.0232 10.5321ZM23.3268 10.6368L24.3205 10.5245L23.3268 10.6368ZM23.3624 10.9519L22.3687 11.0642L23.3624 10.9519ZM23.398 11.2669L24.3917 11.1546L23.398 11.2669ZM23.5972 11.6077L23.4422 12.5956L23.5972 11.6077ZM23.9244 11.659L24.0794 10.6711L23.9244 11.659ZM24.3369 11.5175L23.7793 10.6874L24.3369 11.5175ZM24.5858 11.3503L25.1434 12.1804L24.5858 11.3503ZM24.8347 11.1831L24.2771 10.353L24.8347 11.1831ZM25.2275 11.086L25.6655 10.187L25.2275 11.086ZM25.5154 11.2263L25.0774 12.1253L25.5154 11.2263ZM25.7074 11.5832L24.7212 11.7486L25.7074 11.5832ZM25.8036 12.1569L26.7898 11.9916L25.8036 12.1569ZM26.0359 12.4228L25.9231 11.4292L26.0359 12.4228ZM26.2201 12.4019L26.3328 13.3955L26.2201 12.4019ZM26.4043 12.381L26.2915 11.3874L26.4043 12.381ZM26.7384 12.4167L26.3851 13.3523L26.7384 12.4167ZM27.0382 12.5299L27.3914 11.5944L27.0382 12.5299ZM27.3161 12.6927L26.6778 13.4625L27.3161 12.6927ZM27.5721 12.905L28.2104 12.1352L27.5721 12.905ZM27.661 13.0202L27.435 12.0461L27.661 13.0202ZM27.5828 13.0383L27.8089 14.0124L27.5828 13.0383ZM27.3874 13.113L27.0004 12.1909L27.3874 13.113ZM27.231 13.1786L27.618 14.1007L27.231 13.1786ZM27.0747 13.2443L26.6877 12.3222L27.0747 13.2443ZM26.9482 13.5816L25.9542 13.6911L26.9482 13.5816ZM27.0081 14.125L28.0021 14.0156L27.0081 14.125ZM26.8646 14.4436L27.1254 15.409L26.8646 14.4436ZM26.6913 14.4904L26.4305 13.525L26.6913 14.4904ZM26.5179 14.5372L26.7787 15.5026L26.5179 14.5372ZM26.3161 14.7911L27.3068 14.9274L26.3161 14.7911ZM26.2591 15.2053L25.2685 15.069L26.2591 15.2053ZM25.984 15.3781L26.1216 14.3876L25.984 15.3781ZM25.4907 15.3096L25.353 16.3001L25.4907 15.3096ZM25.157 15.4177L26.0103 15.9391L25.157 15.4177ZM25.07 15.56L24.2167 15.0386L25.07 15.56ZM24.983 15.7024L25.8363 16.2238L24.983 15.7024ZM24.7794 15.9543L24.0947 15.2256L24.7794 15.9543ZM24.5462 16.1735L25.2309 16.9023L24.5462 16.1735ZM24.3656 16.451L25.3002 16.8068L24.3656 16.451ZM24.3017 16.6189L23.3671 16.2631L24.3017 16.6189ZM24.2378 16.7867L23.3032 16.4309L24.2378 16.7867ZM24.0334 17.0378L23.5237 16.1775L24.0334 17.0378ZM23.8929 17.1211L23.3833 16.2607L23.8929 17.1211ZM23.7525 17.2043L24.2621 18.0646L23.7525 17.2043ZM23.4703 17.3693L23.9707 18.2352L23.4703 17.3693ZM23.187 17.5331L23.6873 18.3989L23.187 17.5331ZM22.9134 17.7076L23.4882 18.5259L22.9134 17.7076ZM22.6496 17.8929L22.0747 17.0747L22.6496 17.8929ZM22.4376 18.1357L21.5552 17.6653L22.4376 18.1357ZM22.3576 18.2858L23.2401 18.7562L22.3576 18.2858ZM22.2776 18.4359L23.1601 18.9063L22.2776 18.4359ZM22.1154 18.7336L21.2417 18.2471L22.1154 18.7336ZM21.951 19.0289L22.8246 19.5155L21.951 19.0289ZM21.7426 19.2756L21.1252 18.4889L21.7426 19.2756ZM21.4902 19.4736L22.1076 20.2603L21.4902 19.4736ZM21.2247 19.6571L21.7432 20.5122L21.2247 19.6571ZM20.9461 19.8261L20.4276 18.971L20.9461 19.8261ZM20.5596 19.8757L20.42 20.8659L20.5596 19.8757ZM20.3124 19.8408L20.1728 20.831L20.3124 19.8408ZM20.0653 19.806L20.2049 18.8158L20.0653 19.806ZM19.7264 19.9083L18.8951 19.3523L19.7264 19.9083ZM19.5429 20.1825L20.3742 20.7385L19.5429 20.1825ZM19.4476 20.5543L20.4474 20.5698L19.4476 20.5543ZM19.4439 20.7888L20.4438 20.8044L19.4439 20.7888ZM19.4402 21.0234L18.4404 21.0078L19.4402 21.0234ZM19.3198 21.3673L20.0033 22.0973L19.3198 21.3673ZM19.203 21.4767L18.5195 20.7468L19.203 21.4767ZM19.0862 21.5861L18.4027 20.8562L19.0862 21.5861ZM18.7717 21.7154L18.6716 20.7204L18.7717 21.7154ZM18.574 21.7353L18.4739 20.7403L18.574 21.7353ZM18.3763 21.7551L18.4764 22.7501L18.3763 21.7551ZM18.0262 21.845L17.6088 20.9363L18.0262 21.845ZM17.8738 21.915L18.2911 22.8238L17.8738 21.915ZM17.7214 21.985L18.1387 22.8938L17.7214 21.985ZM17.4311 22.1411L16.9014 21.2929L17.4311 22.1411ZM17.2932 22.2272L17.8229 23.0754L17.2932 22.2272ZM17.1554 22.3133L16.6257 21.4651L17.1554 22.3133ZM16.878 22.4836L17.3949 23.3396L16.878 22.4836ZM16.7385 22.5679L16.2216 21.7118L16.7385 22.5679ZM16.5989 22.6521L17.1159 23.5081L16.5989 22.6521ZM16.3796 22.8866L17.2626 23.356L16.3796 22.8866ZM16.2997 23.0369L15.4167 22.5675L16.2997 23.0369ZM16.2198 23.1871L17.1028 23.6565L16.2198 23.1871ZM16.0065 23.4283L16.5696 24.2547L16.0065 23.4283ZM15.873 23.5192L15.3099 22.6929L15.873 23.5192ZM15.7395 23.6102L16.3027 24.4366L15.7395 23.6102ZM15.4391 23.755L15.132 22.8034L15.4391 23.755ZM15.2721 23.8089L15.5793 24.7606L15.2721 23.8089ZM15.1052 23.8628L15.4123 24.8145L15.1052 23.8628ZM14.9505 24.1689L15.9493 24.1202L14.9505 24.1689ZM14.9751 24.6733L13.9763 24.722L14.9751 24.6733ZM14.9347 25.1059L13.9748 24.8259L14.9347 25.1059ZM14.8295 25.4667L15.7895 25.7467L14.8295 25.4667ZM14.6073 25.6981L14.8957 26.6557L14.6073 25.6981ZM14.2683 25.8002L14.5566 26.7578L14.2683 25.8002ZM13.9673 25.9445L13.389 25.1287L13.9673 25.9445ZM13.7044 26.1308L14.2828 26.9466L13.7044 26.1308ZM13.4712 26.35L14.2491 26.9784L13.4712 26.35ZM13.3694 26.476L12.5915 25.8476L13.3694 26.476ZM13.2676 26.602L14.0455 27.2304L13.2676 26.602ZM13.0519 26.8405L13.7544 27.5522L13.0519 26.8405ZM12.9379 26.9531L13.6404 27.6647L12.9379 26.9531ZM12.8239 27.0656L12.1214 26.3539L12.8239 27.0656ZM12.4759 27.1578L12.3895 28.154L12.4759 27.1578ZM12.2419 27.1375L12.3283 26.1412L12.2419 27.1375ZM12.0079 27.1172L11.9214 28.1134L12.0079 27.1172ZM11.7535 27.313L10.7579 27.2192L11.7535 27.313ZM11.7332 27.5291L10.7376 27.4353L11.7332 27.5291ZM11.7128 27.7452L12.7084 27.8389L11.7128 27.7452ZM11.5515 28.044L11.0454 27.1815L11.5515 28.044ZM11.2697 28.2094L11.7759 29.0718L11.2697 28.2094ZM11.018 28.4081L11.7409 29.099L11.018 28.4081ZM10.9071 28.5241L11.63 29.215L10.9071 28.5241ZM10.7963 28.64L10.0733 27.9491L10.7963 28.64ZM10.5514 28.8463L9.99266 28.017L10.5514 28.8463ZM10.4173 28.9366L9.85861 28.1073L10.4173 28.9366ZM10.2833 29.0269L10.842 29.8563L10.2833 29.0269ZM9.95348 29.1393L10.0654 30.133L9.95348 29.1393ZM9.75774 29.1613L9.86966 30.155L9.75774 29.1613ZM9.562 29.1834L9.45007 28.1897L9.562 29.1834ZM9.43851 29.524L8.46328 29.7452L9.43851 29.524ZM9.51077 29.8425L8.53554 30.0637L9.51077 29.8425ZM9.58302 30.1611L10.5582 29.9399L9.58302 30.1611ZM9.32787 30.356L8.97461 31.2915L9.32787 30.356ZM8.67304 30.1088L9.02629 29.1732L8.67304 30.1088ZM8.2366 30.1031L7.50212 29.4245L8.2366 30.1031ZM8.12758 30.2211L7.3931 29.5425L8.12758 30.2211ZM8.01856 30.3391L8.75305 31.0177L8.01856 30.3391ZM7.88373 30.6672L8.87626 30.7891L7.88373 30.6672ZM7.8321 31.0873L6.83956 30.9653L7.8321 31.0873ZM7.72002 31.6791L6.74461 31.4587L7.72002 31.6791ZM7.67689 31.87L6.70147 31.6496L7.67689 31.87ZM7.51433 32.1674L8.17983 32.9138L7.51433 32.1674ZM7.3949 32.2739L6.7294 31.5275L7.3949 32.2739ZM7.27548 32.3803L6.60997 31.6339L7.27548 32.3803ZM6.8374 32.8501L6.08561 32.1907L6.8374 32.8501ZM6.43355 32.8805L6.72501 31.9239L6.43355 32.8805ZM5.83827 32.6991L5.54681 33.6557L5.83827 32.6991ZM5.48963 32.7906L6.4526 33.0602L5.48963 32.7906ZM5.38762 33.155L4.42465 32.8854L5.38762 33.155ZM5.17534 33.3974L4.82576 32.4605L5.17534 33.3974ZM5.01406 33.4575L4.66448 32.5206L5.01406 33.4575ZM4.85278 33.5177L5.20236 34.4546L4.85278 33.5177ZM4.63288 33.7517L5.58042 34.0713L4.63288 33.7517ZM4.57427 33.9254L3.62673 33.6058L4.57427 33.9254ZM4.51565 34.0992L3.56811 33.7795L4.51565 34.0992ZM4.31137 34.3504L3.84185 33.4675L4.31137 34.3504ZM4.02005 34.5053L4.48957 35.3882L4.02005 34.5053ZM3.87805 34.8254L2.87816 34.8405L3.87805 34.8254ZM3.88535 35.3107L4.88524 35.2957L3.88535 35.3107ZM3.57612 35.4458L3.25104 36.3915L3.57612 35.4458ZM2.95036 35.2307L3.27544 34.285L2.95036 35.2307ZM2.66235 35.3893L3.65801 35.2963L2.66235 35.3893ZM2.7121 35.9216L1.71644 36.0146L2.7121 35.9216ZM2.56701 36.2383L2.28185 35.2798L2.56701 36.2383ZM2.22708 36.3394L2.51224 37.2979L2.22708 36.3394ZM2.04284 36.4175L1.15532 35.9567L2.04284 36.4175ZM2.02856 36.445L1.14105 35.9842L0.10049 37.9884L2.28387 37.4119L2.02856 36.445ZM2.07419 36.4329L2.74473 37.1748L1.81887 35.4661L2.07419 36.4329ZM1.32946 35.7581C0.919735 36.1285 0.887797 36.7608 1.25813 37.1705C1.62846 37.5803 2.26081 37.6122 2.67054 37.2419L2 36.5L1.32946 35.7581ZM2 1.5L1.59549 2.41454L1.68695 2.45499L2.09145 1.54045L2.49596 0.625915L2.40451 0.585465L2 1.5ZM2.09145 1.54045L2.14653 2.53893L2.44915 2.52224L2.39407 1.52376L2.33899 0.525275L2.03637 0.541969L2.09145 1.54045ZM2.39407 1.52376L2.44915 2.52224C2.43532 2.523 2.31249 2.52863 2.15789 2.44358C1.97879 2.34504 1.87051 2.18775 1.82435 2.05044L2.77223 1.73181L3.72011 1.41318C3.62359 1.12603 3.4271 0.859151 3.12194 0.691265C2.84129 0.536862 2.55456 0.513384 2.33899 0.525275L2.39407 1.52376ZM2.77223 1.73181L1.82435 2.05044L1.8999 2.27518L2.84778 1.95655L3.79566 1.63792L3.72011 1.41318L2.77223 1.73181ZM2.84778 1.95655L1.8999 2.27518L1.97545 2.49992L2.92333 2.18129L3.8712 1.86266L3.79566 1.63792L2.84778 1.95655ZM2.92333 2.18129L1.97545 2.49992C2.0449 2.70654 2.20982 3.03792 2.59005 3.22572C2.98142 3.41902 3.35526 3.34042 3.57526 3.25423L3.21049 2.32313L2.84572 1.39203C2.92465 1.36111 3.18009 1.2865 3.47573 1.43252C3.76024 1.57304 3.85211 1.80587 3.8712 1.86266L2.92333 2.18129ZM3.21049 2.32313L3.57526 3.25423L3.78689 3.17132L3.42212 2.24022L3.05735 1.30912L2.84572 1.39203L3.21049 2.32313ZM3.42212 2.24022L3.78689 3.17132L3.99851 3.08841L3.63374 2.15732L3.26897 1.22622L3.05735 1.30912L3.42212 2.24022ZM3.63374 2.15732L3.99851 3.08841C4.02425 3.07833 4.03701 3.07555 4.0379 3.07537C4.03857 3.07523 4.02471 3.07818 3.99889 3.07766L4.01879 2.07786L4.03868 1.07806C3.75766 1.07247 3.49638 1.13713 3.26897 1.22622L3.63374 2.15732ZM4.01879 2.07786L3.99889 3.07766L4.17232 3.08111L4.19221 2.08131L4.21211 1.08151L4.03868 1.07806L4.01879 2.07786ZM4.19221 2.08131L4.17232 3.08111L4.34574 3.08457L4.36564 2.08476L4.38553 1.08496L4.21211 1.08151L4.19221 2.08131ZM4.36564 2.08476L4.34574 3.08457C4.21927 3.08205 4.07572 3.04288 3.94753 2.95355C3.82761 2.86999 3.76795 2.77541 3.74377 2.72838L4.63311 2.27113L5.52245 1.81389C5.32916 1.43794 4.94393 1.09607 4.38553 1.08496L4.36564 2.08476ZM4.63311 2.27113L3.74377 2.72838L3.83782 2.9113L4.72716 2.45405L5.6165 1.9968L5.52245 1.81389L4.63311 2.27113ZM4.72716 2.45405L3.83782 2.9113L3.93186 3.09422L4.8212 2.63697L5.71054 2.17972L5.6165 1.9968L4.72716 2.45405ZM4.8212 2.63697L3.93186 3.09422C4.06517 3.35351 4.28236 3.62416 4.62219 3.7893L5.05925 2.88986L5.49631 1.99043C5.64414 2.06226 5.70263 2.16433 5.71054 2.17972L4.8212 2.63697ZM5.05925 2.88986L4.62219 3.7893L4.76619 3.85927L5.20325 2.95984L5.64031 2.0604L5.49631 1.99043L5.05925 2.88986ZM5.20325 2.95984L4.76619 3.85927L4.91019 3.92924L5.34725 3.02981L5.78431 2.13038L5.64031 2.0604L5.20325 2.95984ZM5.34725 3.02981L4.91019 3.92924C5.25748 4.098 5.6128 4.09777 5.90845 4.03027L5.68586 3.05535L5.46327 2.08044C5.49944 2.07218 5.62903 2.05492 5.78431 2.13038L5.34725 3.02981ZM5.68586 3.05535L5.90845 4.03027L6.10306 3.98583L5.88047 3.01092L5.65787 2.03601L5.46327 2.08044L5.68586 3.05535ZM5.88047 3.01092L6.10306 3.98583L6.29766 3.9414L6.07507 2.96649L5.85248 1.99158L5.65787 2.03601L5.88047 3.01092ZM6.07507 2.96649L6.29766 3.9414C6.25507 3.95113 6.17042 3.96294 6.06043 3.94137C5.94432 3.9186 5.83714 3.86568 5.75182 3.79362L6.39705 3.02963L7.04227 2.26564C6.66861 1.95006 6.22061 1.90753 5.85248 1.99158L6.07507 2.96649ZM6.39705 3.02963L5.75182 3.79362L5.8792 3.90119L6.52442 3.1372L7.16965 2.37321L7.04227 2.26564L6.39705 3.02963ZM6.52442 3.1372L5.8792 3.90119L6.00657 4.00876L6.65179 3.24477L7.29702 2.48078L7.16965 2.37321L6.52442 3.1372ZM6.65179 3.24477L6.00657 4.00876C5.9386 3.95136 5.9031 3.89627 5.88828 3.86938C5.87399 3.84346 5.87469 3.83631 5.88123 3.86028L6.84593 3.59693L7.81064 3.33358C7.73879 3.07041 7.598 2.73497 7.29702 2.48078L6.65179 3.24477ZM6.84593 3.59693L5.88123 3.86028L5.948 4.10487L6.9127 3.84152L7.8774 3.57817L7.81064 3.33358L6.84593 3.59693ZM6.9127 3.84152L5.948 4.10487L6.01477 4.34946L6.97947 4.08611L7.94417 3.82276L7.8774 3.57817L6.9127 3.84152ZM6.97947 4.08611L6.01477 4.34946C6.07736 4.57871 6.29724 5.09354 6.91283 5.20678C7.39526 5.29552 7.76287 5.04688 7.88769 4.95692L7.30305 4.14563L6.71841 3.33434C6.72076 3.33264 6.76235 3.30207 6.83868 3.27375C6.9146 3.24559 7.07209 3.20252 7.27467 3.23978C7.78241 3.33318 7.9261 3.75656 7.94417 3.82276L6.97947 4.08611ZM7.30305 4.14563L7.88769 4.95692L8.1445 4.77186L7.55986 3.96057L6.97521 3.14927L6.71841 3.33434L7.30305 4.14563ZM7.55986 3.96057L8.1445 4.77186L8.40131 4.58679L7.81667 3.7755L7.23202 2.96421L6.97521 3.14927L7.55986 3.96057ZM7.81667 3.7755L8.40131 4.58679C8.43406 4.56319 8.33803 4.64622 8.14474 4.66718C8.032 4.6794 7.88398 4.67014 7.72821 4.60387C7.57185 4.53734 7.46056 4.43586 7.38898 4.34198L8.1842 3.73565L8.97941 3.12932C8.727 2.79829 8.33333 2.63501 7.92916 2.67883C7.61336 2.71307 7.37048 2.86444 7.23202 2.96421L7.81667 3.7755ZM8.1842 3.73565L7.38898 4.34198L7.4997 4.4872L8.29492 3.88087L9.09013 3.27454L8.97941 3.12932L8.1842 3.73565ZM8.29492 3.88087L7.4997 4.4872L7.61043 4.63241L8.40564 4.02608L9.20085 3.41975L9.09013 3.27454L8.29492 3.88087ZM8.40564 4.02608L7.61043 4.63241C7.74634 4.81066 7.93877 4.97222 8.1916 5.06505C8.44083 5.15655 8.68331 5.15734 8.88603 5.12038L8.70666 4.1366L8.5273 3.15282C8.60314 3.13899 8.73203 3.13293 8.88091 3.18759C9.03341 3.24358 9.13876 3.33831 9.20085 3.41975L8.40564 4.02608ZM8.70666 4.1366L8.88603 5.12038L9.07632 5.08569L8.89696 4.10191L8.71759 3.11812L8.5273 3.15282L8.70666 4.1366ZM8.89696 4.10191L9.07632 5.08569L9.26662 5.05099L9.08726 4.06721L8.90789 3.08343L8.71759 3.11812L8.89696 4.10191ZM9.08726 4.06721L9.26662 5.05099C9.0883 5.0835 8.82364 5.0564 8.59986 4.86693C8.41887 4.71368 8.377 4.54606 8.37326 4.53151L9.34183 4.28275L10.3104 4.034C10.2638 3.85262 10.1581 3.56566 9.89224 3.34057C9.5836 3.07925 9.21308 3.02779 8.90789 3.08343L9.08726 4.06721ZM9.34183 4.28275L8.37326 4.53151L8.43753 4.78175L9.4061 4.53299L10.3747 4.28423L10.3104 4.034L9.34183 4.28275ZM9.4061 4.53299L8.43753 4.78175L8.5018 5.03199L9.47036 4.78323L10.4389 4.53447L10.3747 4.28423L9.4061 4.53299ZM9.47036 4.78323L8.5018 5.03199C8.5845 5.35401 8.86734 5.97848 9.61512 6.04446L9.70301 5.04833L9.79091 4.0522C10.0031 4.07092 10.1895 4.17509 10.3123 4.31501C10.4139 4.43085 10.4381 4.5312 10.4389 4.53447L9.47036 4.78323ZM9.70301 5.04833L9.61512 6.04446L9.7835 6.05932L9.8714 5.06319L9.95929 4.06706L9.79091 4.0522L9.70301 5.04833ZM9.8714 5.06319L9.7835 6.05932L9.95188 6.07417L10.0398 5.07805L10.1277 4.08192L9.95929 4.06706L9.8714 5.06319ZM10.0398 5.07805L9.95188 6.07417C10.0623 6.08392 10.1726 6.09396 10.2828 6.10429L10.3761 5.10865L10.4695 4.11302C10.3557 4.10235 10.2417 4.09198 10.1277 4.08192L10.0398 5.07805ZM10.3761 5.10865L10.2828 6.10429L10.4508 6.12004L10.5441 5.1244L10.6375 4.12877L10.4695 4.11302L10.3761 5.10865ZM10.5441 5.1244L10.4508 6.12004L10.6188 6.13578L10.7121 5.14015L10.8055 4.14452L10.6375 4.12877L10.5441 5.1244ZM10.7121 5.14015L10.6188 6.13578C10.8237 6.155 11.0267 6.14515 11.2241 6.11398L11.0682 5.12621L10.9123 4.13844C10.8589 4.14686 10.8245 4.1463 10.8055 4.14452L10.7121 5.14015ZM11.0682 5.12621L11.2241 6.11398L11.4122 6.08429L11.2563 5.09652L11.1003 4.10875L10.9123 4.13844L11.0682 5.12621ZM11.2563 5.09652L11.4122 6.08429L11.6003 6.0546L11.4444 5.06683L11.2884 4.07906L11.1003 4.10875L11.2563 5.09652ZM11.4444 5.06683L11.6003 6.0546C11.4847 6.07284 11.3216 6.07129 11.1464 5.99889C10.9698 5.9259 10.8495 5.80927 10.7766 5.70642C10.6553 5.53548 10.6587 5.39769 10.6632 5.45261L11.6599 5.37071L12.6565 5.2888C12.6427 5.12134 12.601 4.82171 12.408 4.54949C12.2991 4.39599 12.1362 4.24385 11.9103 4.15049C11.6858 4.05771 11.4667 4.05092 11.2884 4.07906L11.4444 5.06683ZM11.6599 5.37071L10.6632 5.45261L10.6906 5.78618L11.6873 5.70427L12.6839 5.62237L12.6565 5.2888L11.6599 5.37071ZM11.6873 5.70427L10.6906 5.78618L10.718 6.11975L11.7147 6.03784L12.7113 5.95594L12.6839 5.62237L11.6873 5.70427ZM11.7147 6.03784L10.718 6.11975C10.7273 6.23225 10.751 6.39686 10.8259 6.56928C10.9033 6.74767 11.0684 7.00412 11.3906 7.14924C11.714 7.29494 12.0172 7.24811 12.2046 7.18578C12.3847 7.12588 12.524 7.0324 12.6139 6.96367L12.0064 6.16928L11.399 5.37489C11.4008 5.37353 11.4618 5.32511 11.5735 5.28795C11.6926 5.24835 11.9373 5.20194 12.2121 5.32573C12.4856 5.44894 12.612 5.66116 12.6605 5.77301C12.7065 5.87888 12.7112 5.95462 12.7113 5.95594L11.7147 6.03784ZM12.0064 6.16928L12.6139 6.96367L12.8782 6.76154L12.2708 5.96715L11.6634 5.17276L11.399 5.37489L12.0064 6.16928ZM12.2708 5.96715L12.8782 6.76154L13.1426 6.55941L12.5352 5.76502L11.9278 4.97062L11.6634 5.17276L12.2708 5.96715ZM12.5352 5.76502L13.1426 6.55941C13.1477 6.55546 13.1226 6.57595 13.07 6.59988C13.0202 6.62251 12.9025 6.66809 12.7372 6.66528C12.5514 6.66212 12.356 6.5977 12.1945 6.46493C12.0481 6.34455 11.9813 6.21087 11.9535 6.14124L12.8825 5.77092L13.8114 5.4006C13.756 5.26162 13.6539 5.07569 13.4648 4.92014C13.2606 4.75221 13.0148 4.66971 12.7712 4.66557C12.3586 4.65856 12.0539 4.87415 11.9278 4.97062L12.5352 5.76502ZM12.8825 5.77092L11.9535 6.14124L12.0365 6.34928L12.9654 5.97896L13.8943 5.60864L13.8114 5.4006L12.8825 5.77092ZM12.9654 5.97896L12.0365 6.34928L12.1194 6.55731L13.0483 6.18699L13.9772 5.81667L13.8943 5.60864L12.9654 5.97896ZM13.0483 6.18699L12.1194 6.55731C12.1925 6.74055 12.3262 6.97388 12.573 7.15104C12.838 7.34124 13.1387 7.39885 13.4087 7.37314L13.3139 6.37764L13.2191 5.38214C13.3674 5.36802 13.5629 5.39966 13.7393 5.52631C13.8976 5.63992 13.9595 5.77213 13.9772 5.81667L13.0483 6.18699ZM13.3139 6.37764L13.4087 7.37314L13.5913 7.35575L13.4965 6.36025L13.4018 5.36475L13.2191 5.38214L13.3139 6.37764ZM13.4965 6.36025L13.5913 7.35575L13.774 7.33836L13.6792 6.34286L13.5844 5.34736L13.4018 5.36475L13.4965 6.36025ZM13.6792 6.34286L13.774 7.33836C13.6728 7.34799 13.5423 7.33975 13.403 7.28615C13.2623 7.23198 13.1537 7.14724 13.0773 7.06031C13.005 6.97792 12.968 6.90148 12.9505 6.85771C12.9328 6.81353 12.9277 6.78507 12.9273 6.78242L13.9119 6.60782L14.8965 6.43322C14.8659 6.26053 14.793 5.98301 14.58 5.7405C14.3195 5.44384 13.9496 5.31259 13.5844 5.34736L13.6792 6.34286ZM13.9119 6.60782L12.9273 6.78242L12.9773 7.06477L13.962 6.89017L14.9466 6.71557L14.8965 6.43322L13.9119 6.60782ZM13.962 6.89017L12.9773 7.06477L13.0274 7.34712L14.012 7.17252L14.9967 6.99792L14.9466 6.71557L13.962 6.89017ZM14.012 7.17252L13.0274 7.34712C13.0574 7.51647 13.2131 8.16735 13.9192 8.3101C14.214 8.36969 14.4602 8.29627 14.6053 8.23412C14.7539 8.17043 14.8734 8.08609 14.9588 8.01758L14.3332 7.23745L13.7076 6.45732C13.7079 6.45708 13.7162 6.45043 13.732 6.44034C13.7474 6.43054 13.7763 6.41346 13.8177 6.39573C13.8908 6.3644 14.0743 6.30098 14.3155 6.34976C14.588 6.40484 14.7775 6.57024 14.882 6.72633C14.9707 6.8589 14.9921 6.972 14.9967 6.99792L14.012 7.17252ZM14.3332 7.23745L14.9588 8.01758L15.23 7.80017L14.6043 7.02003L13.9787 6.2399L13.7076 6.45732L14.3332 7.23745ZM14.6043 7.02003L15.23 7.80017L15.5011 7.58275L14.8755 6.80262L14.2498 6.02248L13.9787 6.2399L14.6043 7.02003ZM14.8755 6.80262L15.5011 7.58275C15.5497 7.54379 15.4721 7.62372 15.2949 7.6577C15.1891 7.67798 15.0322 7.6843 14.8572 7.6221C14.678 7.55839 14.5486 7.44715 14.466 7.3402L15.2578 6.72933L16.0495 6.11845C15.9299 5.96346 15.7567 5.81925 15.5271 5.73762C15.3017 5.6575 15.0878 5.66098 14.9183 5.69347C14.6136 5.75188 14.382 5.9165 14.2498 6.02248L14.8755 6.80262ZM15.2578 6.72933L14.466 7.3402L14.5773 7.48432L15.369 6.87345L16.1607 6.26258L16.0495 6.11845L15.2578 6.72933ZM15.369 6.87345L14.5773 7.48432L14.6885 7.62845L15.4802 7.01758L16.2719 6.40671L16.1607 6.26258L15.369 6.87345ZM15.4802 7.01758L14.6885 7.62845C14.813 7.7899 14.959 7.93784 15.1292 8.06351L15.7233 7.2591L16.3173 6.4547C16.3117 6.4505 16.2956 6.43743 16.2719 6.40671L15.4802 7.01758ZM15.7233 7.2591L15.1292 8.06351L15.2611 8.1609L15.8551 7.3565L16.4492 6.55209L16.3173 6.4547L15.7233 7.2591ZM15.8551 7.3565L15.2611 8.1609L15.3929 8.25829L15.987 7.45389L16.5811 6.64949L16.4492 6.55209L15.8551 7.3565ZM15.987 7.45389L15.3929 8.25829C15.5849 8.40009 15.8005 8.50244 16.0335 8.56078L16.2764 7.59072L16.5192 6.62065C16.5294 6.62318 16.5409 6.62715 16.5527 6.63275C16.5646 6.63834 16.5741 6.64435 16.5811 6.64949L15.987 7.45389ZM16.2764 7.59072L16.0335 8.56078L16.1911 8.60021L16.4339 7.63015L16.6768 6.66008L16.5192 6.62065L16.2764 7.59072ZM16.4339 7.63015L16.1911 8.60021L16.3486 8.63964L16.5914 7.66958L16.8343 6.69951L16.6768 6.66008L16.4339 7.63015ZM16.5914 7.66958L16.3486 8.63964C16.1502 8.58998 16.0081 8.47277 15.9259 8.36339C15.8888 8.31413 15.8676 8.27181 15.8564 8.24585C15.8452 8.21982 15.8412 8.20393 15.841 8.20287L16.8117 7.96265L17.7824 7.72243C17.7097 7.42853 17.4837 6.8621 16.8343 6.69951L16.5914 7.66958ZM16.8117 7.96265L15.841 8.20287L15.9037 8.4565L16.8745 8.21628L17.8452 7.97607L17.7824 7.72243L16.8117 7.96265ZM16.8745 8.21628L15.9037 8.4565L15.9665 8.71014L16.9372 8.46992L17.9079 8.2297L17.8452 7.97607L16.8745 8.21628ZM16.9372 8.46992L15.9665 8.71014C16.0128 8.89727 16.1343 9.24339 16.4836 9.47499C16.8787 9.73703 17.293 9.68079 17.5442 9.59106L17.2078 8.64934L16.8714 7.70762C16.9841 7.66737 17.284 7.60596 17.5889 7.8082C17.848 7.98 17.9035 8.21167 17.9079 8.2297L16.9372 8.46992ZM17.2078 8.64934L17.5442 9.59106L17.7519 9.51684L17.4156 8.57512L17.0792 7.6334L16.8714 7.70762L17.2078 8.64934ZM17.4156 8.57512L17.7519 9.51684L17.9597 9.44262L17.6233 8.5009L17.2869 7.55918L17.0792 7.6334L17.4156 8.57512ZM17.6233 8.5009L17.9597 9.44262C17.959 9.44289 17.9292 9.45364 17.8757 9.45678C17.8194 9.46009 17.7405 9.45457 17.6518 9.42347L17.9826 8.47978L18.3134 7.53608C17.9278 7.40091 17.561 7.46129 17.2869 7.55918L17.6233 8.5009ZM17.9826 8.47978L17.6518 9.42347L17.8032 9.47657L18.1341 8.53288L18.4649 7.58918L18.3134 7.53608L17.9826 8.47978ZM18.1341 8.53288L17.8032 9.47657L17.9547 9.52967L18.2855 8.58597L18.6163 7.64228L18.4649 7.58918L18.1341 8.53288ZM18.2855 8.58597L17.9547 9.52967C17.7968 9.47431 17.687 9.37708 17.6222 9.29233C17.5921 9.25292 17.5737 9.21917 17.5634 9.19736C17.5531 9.17557 17.5489 9.16196 17.5484 9.16005L18.5072 8.87593L19.466 8.59181C19.3787 8.29739 19.1568 7.83176 18.6163 7.64228L18.2855 8.58597ZM18.5072 8.87593L17.5484 9.16005L17.6186 9.39691L18.5774 9.11279L19.5361 8.82867L19.466 8.59181L18.5072 8.87593ZM18.5774 9.11279L17.6186 9.39691L17.6888 9.63376L18.6475 9.34964L19.6063 9.06553L19.5361 8.82867L18.5774 9.11279ZM18.6475 9.34964L17.6888 9.63376C17.7571 9.86455 17.9729 10.3309 18.5378 10.4609C19.0077 10.569 19.3779 10.3488 19.5172 10.2565L18.9651 9.42272L18.4131 8.58889C18.4219 8.5831 18.4703 8.55137 18.5536 8.5253C18.6386 8.49865 18.7944 8.46766 18.9863 8.5118C19.4453 8.61743 19.5847 8.99265 19.6063 9.06553L18.6475 9.34964ZM18.9651 9.42272L19.5172 10.2565L19.7646 10.0928L19.2125 9.25893L18.6605 8.4251L18.4131 8.58889L18.9651 9.42272ZM19.2125 9.25893L19.7646 10.0928L20.0119 9.92897L19.4599 9.09515L18.9079 8.26132L18.6605 8.4251L19.2125 9.25893ZM19.4599 9.09515L20.0119 9.92897C20.0119 9.92903 20.0074 9.93196 19.9988 9.93666C19.9903 9.94132 19.9759 9.94869 19.9559 9.95693C19.9183 9.97239 19.8444 9.99782 19.7417 10.0048C19.6337 10.0122 19.4988 9.99832 19.359 9.93787C19.2188 9.8773 19.1152 9.78796 19.0453 9.70203L19.8207 9.07058L20.5961 8.43914C20.3516 8.13889 19.9872 7.98346 19.6059 8.00942C19.2955 8.03055 19.0523 8.16574 18.9079 8.26132L19.4599 9.09515ZM19.8207 9.07058L19.0453 9.70203L19.1586 9.84125L19.9341 9.20981L20.7095 8.57836L20.5961 8.43914L19.8207 9.07058ZM19.9341 9.20981L19.1586 9.84125L19.272 9.98048L20.0474 9.34903L20.8229 8.71758L20.7095 8.57836L19.9341 9.20981ZM20.0474 9.34903L19.272 9.98048C19.3336 10.0561 19.3944 10.1359 19.4544 10.2201L20.2688 9.63974L21.0831 9.05941C20.9992 8.94159 20.9124 8.8276 20.8229 8.71758L20.0474 9.34903ZM20.2688 9.63974L19.4544 10.2201L19.5623 10.3716L20.3767 9.79122L21.1911 9.21089L21.0831 9.05941L20.2688 9.63974ZM20.3767 9.79122L19.5623 10.3716L19.6703 10.523L20.4847 9.94271L21.299 9.36238L21.1911 9.21089L20.3767 9.79122ZM20.4847 9.94271L19.6703 10.523C19.8141 10.7248 20.0313 10.9097 20.3263 10.999C20.6102 11.0848 20.8733 11.054 21.0716 10.9966L20.7933 10.0361L20.515 9.07555C20.5795 9.05687 20.7243 9.02986 20.9053 9.08461C21.0974 9.14272 21.2272 9.2616 21.299 9.36238L20.4847 9.94271ZM20.7933 10.0361L21.0716 10.9966L21.2722 10.9384L20.9939 9.97791L20.7157 9.01742L20.515 9.07555L20.7933 10.0361ZM20.9939 9.97791L21.2722 10.9384L21.4729 10.8803L21.1946 9.91977L20.9163 8.95928L20.7157 9.01742L20.9939 9.97791ZM21.1946 9.91977L21.4729 10.8803C21.465 10.8825 21.3573 10.9111 21.2067 10.8567L21.5462 9.91608L21.8856 8.97545C21.5338 8.84851 21.1917 8.87948 20.9163 8.95928L21.1946 9.91977ZM21.5462 9.91608L21.2067 10.8567L21.3576 10.9112L21.697 9.97052L22.0365 9.0299L21.8856 8.97545L21.5462 9.91608ZM21.697 9.97052L21.3576 10.9112L21.5085 10.9656L21.8479 10.025L22.1873 9.08434L22.0365 9.0299L21.697 9.97052ZM21.8479 10.025L21.5085 10.9656C21.3105 10.8941 21.1898 10.763 21.13 10.6685C21.0776 10.5857 21.0702 10.531 21.074 10.5497L22.0539 10.3503L23.0338 10.1509C22.9784 9.87882 22.8004 9.30556 22.1873 9.08434L21.8479 10.025ZM22.0539 10.3503L21.074 10.5497L21.1291 10.8206L22.109 10.6212L23.0889 10.4217L23.0338 10.1509L22.0539 10.3503ZM22.109 10.6212L21.1291 10.8206L21.1843 11.0915L22.1642 10.8921L23.1441 10.6926L23.0889 10.4217L22.109 10.6212ZM22.1642 10.8921L21.1843 11.0915C21.2229 11.2814 21.4017 11.8968 22.0882 12.0255C22.3717 12.0787 22.609 12.0104 22.7531 11.95C22.9001 11.8884 23.0188 11.8067 23.1046 11.7393L22.4873 10.9527L21.8699 10.166C21.8707 10.1653 21.8794 10.1586 21.8954 10.1486C21.911 10.1389 21.9395 10.1224 21.9801 10.1055C22.0526 10.0751 22.2271 10.0167 22.4568 10.0598C22.7157 10.1083 22.9056 10.259 23.0168 10.4134C23.1117 10.5453 23.1377 10.6611 23.1441 10.6926L22.1642 10.8921ZM22.4873 10.9527L23.1046 11.7393L23.3726 11.529L22.7552 10.7424L22.1379 9.9557L21.8699 10.166L22.4873 10.9527ZM22.7552 10.7424L23.3726 11.529L23.6406 11.3187L23.0232 10.5321L22.4058 9.7454L22.1379 9.9557L22.7552 10.7424ZM23.0232 10.5321L23.6406 11.3187C23.6378 11.321 23.6256 11.3304 23.6044 11.3432C23.5839 11.3556 23.5469 11.3761 23.4948 11.3957C23.3972 11.4324 23.1751 11.491 22.9069 11.3984C22.6236 11.3007 22.4708 11.0982 22.4036 10.9665C22.3436 10.8487 22.3342 10.7587 22.3331 10.7491L23.3268 10.6368L24.3205 10.5245C24.3075 10.41 24.2766 10.2368 24.1853 10.0578C24.0869 9.86487 23.8932 9.62303 23.5593 9.50781C23.2405 9.39781 22.9581 9.46077 22.7905 9.52381C22.6241 9.58641 22.4937 9.67648 22.4058 9.7454L23.0232 10.5321ZM23.3268 10.6368L22.3331 10.7491L22.3687 11.0642L23.3624 10.9519L24.3561 10.8396L24.3205 10.5245L23.3268 10.6368ZM23.3624 10.9519L22.3687 11.0642L22.4043 11.3792L23.398 11.2669L24.3917 11.1546L24.3561 10.8396L23.3624 10.9519ZM23.398 11.2669L22.4043 11.3792C22.4234 11.5484 22.4689 11.7862 22.6023 12.0144C22.7548 12.2753 23.0332 12.5314 23.4422 12.5956L23.5972 11.6077L23.7522 10.6197C23.8837 10.6404 24.0112 10.6932 24.1207 10.7747C24.226 10.8531 24.2911 10.9404 24.3289 11.0049C24.3959 11.1195 24.3963 11.1955 24.3917 11.1546L23.398 11.2669ZM23.5972 11.6077L23.4422 12.5956L23.6058 12.6212L23.7608 11.6333L23.9158 10.6454L23.7522 10.6197L23.5972 11.6077ZM23.7608 11.6333L23.6058 12.6212L23.7694 12.6469L23.9244 11.659L24.0794 10.6711L23.9158 10.6454L23.7608 11.6333ZM23.9244 11.659L23.7694 12.6469C24.2635 12.7244 24.6721 12.497 24.8945 12.3476L24.3369 11.5175L23.7793 10.6874C23.7437 10.7113 23.7469 10.7036 23.7848 10.6906C23.823 10.6774 23.9302 10.6477 24.0794 10.6711L23.9244 11.659ZM24.3369 11.5175L24.8945 12.3476L25.1434 12.1804L24.5858 11.3503L24.0282 10.5202L23.7793 10.6874L24.3369 11.5175ZM24.5858 11.3503L25.1434 12.1804L25.3923 12.0132L24.8347 11.1831L24.2771 10.353L24.0282 10.5202L24.5858 11.3503ZM24.8347 11.1831L25.3923 12.0132C25.4206 11.9942 25.3857 12.0242 25.2972 12.046C25.1968 12.0709 25.0028 12.0889 24.7896 11.985L25.2275 11.086L25.6655 10.187C25.0467 9.8856 24.4857 10.2129 24.2771 10.353L24.8347 11.1831ZM25.2275 11.086L24.7896 11.985L24.9335 12.0551L25.3715 11.1561L25.8094 10.2572L25.6655 10.187L25.2275 11.086ZM25.3715 11.1561L24.9335 12.0551L25.0774 12.1253L25.5154 11.2263L25.9534 10.3273L25.8094 10.2572L25.3715 11.1561ZM25.5154 11.2263L25.0774 12.1253C24.8921 12.035 24.7955 11.9001 24.7547 11.8243C24.7177 11.7555 24.7161 11.718 24.7212 11.7486L25.7074 11.5832L26.6937 11.4179C26.6501 11.1579 26.5104 10.5986 25.9534 10.3273L25.5154 11.2263ZM25.7074 11.5832L24.7212 11.7486L24.7693 12.0354L25.7555 11.8701L26.7417 11.7047L26.6937 11.4179L25.7074 11.5832ZM25.7555 11.8701L24.7693 12.0354L24.8174 12.3222L25.8036 12.1569L26.7898 11.9916L26.7417 11.7047L25.7555 11.8701ZM25.8036 12.1569L24.8174 12.3222C24.8462 12.4945 24.9168 12.7776 25.1325 13.0246C25.3998 13.3306 25.7803 13.4582 26.1486 13.4164L26.0359 12.4228L25.9231 11.4292C26.0243 11.4177 26.1579 11.4234 26.3019 11.4771C26.4478 11.5316 26.5603 11.619 26.6389 11.7089C26.7131 11.7939 26.7502 11.8727 26.7674 11.9168C26.7849 11.9614 26.7895 11.9898 26.7898 11.9916L25.8036 12.1569ZM26.0359 12.4228L26.1486 13.4164L26.3328 13.3955L26.2201 12.4019L26.1073 11.4083L25.9231 11.4292L26.0359 12.4228ZM26.2201 12.4019L26.3328 13.3955L26.517 13.3746L26.4043 12.381L26.2915 11.3874L26.1073 11.4083L26.2201 12.4019ZM26.4043 12.381L26.517 13.3746C26.5069 13.3758 26.4554 13.3788 26.3851 13.3523L26.7384 12.4167L27.0916 11.4812C26.8214 11.3792 26.5472 11.3584 26.2915 11.3874L26.4043 12.381ZM26.7384 12.4167L26.3851 13.3523L26.535 13.4089L26.8883 12.4733L27.2415 11.5378L27.0916 11.4812L26.7384 12.4167ZM26.8883 12.4733L26.535 13.4089L26.685 13.4655L27.0382 12.5299L27.3914 11.5944L27.2415 11.5378L26.8883 12.4733ZM27.0382 12.5299L26.685 13.4655C26.682 13.4644 26.6793 13.463 26.6773 13.4619C26.6754 13.4607 26.6755 13.4606 26.6778 13.4625L27.3161 12.6927L27.9544 11.9229C27.7871 11.7842 27.5988 11.6727 27.3914 11.5944L27.0382 12.5299ZM27.3161 12.6927L26.6778 13.4625L26.8058 13.5686L27.4441 12.7988L28.0824 12.029L27.9544 11.9229L27.3161 12.6927ZM27.4441 12.7988L26.8058 13.5686L26.9338 13.6748L27.5721 12.905L28.2104 12.1352L28.0824 12.029L27.4441 12.7988ZM27.5721 12.905L26.9338 13.6748C26.9733 13.7075 26.9256 13.6741 26.8667 13.5978C26.8478 13.5732 26.8133 13.526 26.779 13.4598C26.749 13.4019 26.6879 13.2708 26.6734 13.0896C26.6567 12.8826 26.7038 12.6045 26.9096 12.3649C27.0954 12.1484 27.3181 12.0732 27.435 12.0461L27.661 13.0202L27.8871 13.9943C28.0105 13.9657 28.2379 13.8879 28.4269 13.6679C28.6356 13.4248 28.684 13.1421 28.6669 12.9295C28.6411 12.6074 28.4659 12.3964 28.4501 12.3759C28.3615 12.2612 28.2563 12.1732 28.2104 12.1352L27.5721 12.905ZM27.661 13.0202L27.435 12.0461L27.3959 12.0551L27.6219 13.0293L27.848 14.0034L27.8871 13.9943L27.661 13.0202ZM27.6219 13.0293L27.3959 12.0551L27.3568 12.0642L27.5828 13.0383L27.8089 14.0124L27.848 14.0034L27.6219 13.0293ZM27.5828 13.0383L27.3568 12.0642C27.2286 12.094 27.0723 12.1608 27.0004 12.1909L27.3874 13.113L27.7744 14.0351C27.7975 14.0254 27.8172 14.0173 27.8338 14.0105C27.8506 14.0037 27.8629 13.9989 27.8714 13.9956C27.8806 13.9921 27.8818 13.9918 27.8772 13.9934C27.8748 13.9942 27.8683 13.9964 27.8588 13.9992C27.8539 14.0007 27.8474 14.0026 27.8395 14.0047C27.8318 14.0068 27.8214 14.0095 27.8089 14.0124L27.5828 13.0383ZM27.3874 13.113L27.0004 12.1909L26.844 12.2566L27.231 13.1786L27.618 14.1007L27.7744 14.0351L27.3874 13.113ZM27.231 13.1786L26.844 12.2566L26.6877 12.3222L27.0747 13.2443L27.4617 14.1663L27.618 14.1007L27.231 13.1786ZM27.0747 13.2443L26.6877 12.3222C26.3644 12.4578 26.1395 12.7143 26.0285 13.0104C25.9312 13.2699 25.9352 13.5182 25.9542 13.6911L26.9482 13.5816L27.9422 13.4721C27.9425 13.4744 27.9449 13.4967 27.9421 13.534C27.9393 13.5712 27.9304 13.6346 27.9013 13.7124C27.8712 13.7927 27.82 13.886 27.7378 13.9738C27.6545 14.0626 27.5579 14.126 27.4617 14.1663L27.0747 13.2443ZM26.9482 13.5816L25.9542 13.6911L25.9842 13.9628L26.9782 13.8533L27.9721 13.7439L27.9422 13.4721L26.9482 13.5816ZM26.9782 13.8533L25.9842 13.9628L26.0141 14.2345L27.0081 14.125L28.0021 14.0156L27.9721 13.7439L26.9782 13.8533ZM27.0081 14.125L26.0141 14.2345C26.0134 14.2283 26.0104 14.198 26.015 14.1503C26.0196 14.1026 26.0333 14.0234 26.0753 13.9299C26.1193 13.8322 26.1904 13.7288 26.295 13.6408C26.399 13.5533 26.5093 13.5037 26.6039 13.4782L26.8646 14.4436L27.1254 15.409C27.463 15.3178 27.7482 15.086 27.899 14.7511C28.0266 14.4678 28.0215 14.1922 28.0021 14.0156L27.0081 14.125ZM26.8646 14.4436L26.6039 13.4782L26.4305 13.525L26.6913 14.4904L26.952 15.4558L27.1254 15.409L26.8646 14.4436ZM26.6913 14.4904L26.4305 13.525L26.2572 13.5718L26.5179 14.5372L26.7787 15.5026L26.952 15.4558L26.6913 14.4904ZM26.5179 14.5372L26.2572 13.5718C26.0164 13.6368 25.7788 13.7744 25.598 14.0018C25.4249 14.2196 25.3524 14.4584 25.3254 14.6548L26.3161 14.7911L27.3068 14.9274C27.2987 14.9857 27.2695 15.1132 27.1636 15.2464C27.0501 15.3891 26.9039 15.4688 26.7787 15.5026L26.5179 14.5372ZM26.3161 14.7911L25.3254 14.6548L25.2969 14.8619L26.2876 14.9982L27.2783 15.1345L27.3068 14.9274L26.3161 14.7911ZM26.2876 14.9982L25.2969 14.8619L25.2685 15.069L26.2591 15.2053L27.2498 15.3416L27.2783 15.1345L26.2876 14.9982ZM26.2591 15.2053L25.2685 15.069C25.2868 14.9355 25.3713 14.6766 25.6442 14.5052C25.8799 14.3572 26.0895 14.3832 26.1216 14.3876L25.984 15.3781L25.8463 16.3686C26.0429 16.3959 26.3806 16.4045 26.708 16.1989C27.0726 15.9699 27.2124 15.6132 27.2498 15.3416L26.2591 15.2053ZM25.984 15.3781L26.1216 14.3876L25.875 14.3534L25.7373 15.3439L25.5997 16.3343L25.8463 16.3686L25.984 15.3781ZM25.7373 15.3439L25.875 14.3534L25.6283 14.3191L25.4907 15.3096L25.353 16.3001L25.5997 16.3343L25.7373 15.3439ZM25.4907 15.3096L25.6283 14.3191C25.2925 14.2724 24.6655 14.3041 24.3037 14.8962L25.157 15.4177L26.0103 15.9391C25.908 16.1065 25.7511 16.2193 25.5921 16.2708C25.4566 16.3147 25.3618 16.3013 25.353 16.3001L25.4907 15.3096ZM25.157 15.4177L24.3037 14.8962L24.2167 15.0386L25.07 15.56L25.9233 16.0815L26.0103 15.9391L25.157 15.4177ZM25.07 15.56L24.2167 15.0386L24.1297 15.1809L24.983 15.7024L25.8363 16.2238L25.9233 16.0815L25.07 15.56ZM24.983 15.7024L24.1297 15.1809C24.1164 15.2028 24.1045 15.2163 24.0947 15.2256L24.7794 15.9543L25.4642 16.6831C25.6098 16.5462 25.7337 16.3918 25.8363 16.2238L24.983 15.7024ZM24.7794 15.9543L24.0947 15.2256L23.978 15.3351L24.6628 16.0639L25.3475 16.7927L25.4642 16.6831L24.7794 15.9543ZM24.6628 16.0639L23.978 15.3351L23.8614 15.4447L24.5462 16.1735L25.2309 16.9023L25.3475 16.7927L24.6628 16.0639ZM24.5462 16.1735L23.8614 15.4447C23.6603 15.6337 23.5209 15.8591 23.4311 16.0952L24.3656 16.451L25.3002 16.8068C25.2955 16.819 25.2765 16.8594 25.2309 16.9023L24.5462 16.1735ZM24.3656 16.451L23.4311 16.0952L23.3671 16.2631L24.3017 16.6189L25.2363 16.9747L25.3002 16.8068L24.3656 16.451ZM24.3017 16.6189L23.3671 16.2631L23.3032 16.4309L24.2378 16.7867L25.1723 17.1426L25.2363 16.9747L24.3017 16.6189ZM24.2378 16.7867L23.3032 16.4309C23.3157 16.398 23.3389 16.3516 23.3792 16.3022C23.4202 16.2518 23.47 16.2093 23.5237 16.1775L24.0334 17.0378L24.5431 17.8982C24.8511 17.7157 25.0578 17.4433 25.1723 17.1426L24.2378 16.7867ZM24.0334 17.0378L23.5237 16.1775L23.3833 16.2607L23.8929 17.1211L24.4026 17.9814L24.5431 17.8982L24.0334 17.0378ZM23.8929 17.1211L23.3833 16.2607L23.2428 16.3439L23.7525 17.2043L24.2621 18.0646L24.4026 17.9814L23.8929 17.1211ZM23.7525 17.2043L23.2428 16.3439C23.1523 16.3975 23.0613 16.4507 22.97 16.5035L23.4703 17.3693L23.9707 18.2352C24.0682 18.1788 24.1654 18.1219 24.2621 18.0646L23.7525 17.2043ZM23.4703 17.3693L22.97 16.5035L22.8283 16.5854L23.3287 17.4512L23.829 18.317L23.9707 18.2352L23.4703 17.3693ZM23.3287 17.4512L22.8283 16.5854L22.6866 16.6672L23.187 17.5331L23.6873 18.3989L23.829 18.317L23.3287 17.4512ZM23.187 17.5331L22.6866 16.6672C22.5671 16.7364 22.451 16.8104 22.3386 16.8893L22.9134 17.7076L23.4882 18.5259C23.5517 18.4813 23.618 18.439 23.6873 18.3989L23.187 17.5331ZM22.9134 17.7076L22.3386 16.8893L22.2066 16.982L22.7815 17.8003L23.3563 18.6186L23.4882 18.5259L22.9134 17.7076ZM22.7815 17.8003L22.2066 16.982L22.0747 17.0747L22.6496 17.8929L23.2244 18.7112L23.3563 18.6186L22.7815 17.8003ZM22.6496 17.8929L22.0747 17.0747C21.8513 17.2316 21.6782 17.4346 21.5552 17.6653L22.4376 18.1357L23.3201 18.6061C23.313 18.6195 23.3014 18.6377 23.284 18.6576C23.2664 18.6777 23.2461 18.696 23.2244 18.7112L22.6496 17.8929ZM22.4376 18.1357L21.5552 17.6653L21.4752 17.8154L22.3576 18.2858L23.2401 18.7562L23.3201 18.6061L22.4376 18.1357ZM22.3576 18.2858L21.4752 17.8154L21.3952 17.9655L22.2776 18.4359L23.1601 18.9063L23.2401 18.7562L22.3576 18.2858ZM22.2776 18.4359L21.3952 17.9655C21.3447 18.0602 21.2936 18.1541 21.2417 18.2471L22.1154 18.7336L22.9891 19.2202C23.0469 19.1164 23.1039 19.0117 23.1601 18.9063L22.2776 18.4359ZM22.1154 18.7336L21.2417 18.2471L21.1595 18.3947L22.0332 18.8813L22.9068 19.3678L22.9891 19.2202L22.1154 18.7336ZM22.0332 18.8813L21.1595 18.3947L21.0773 18.5424L21.951 19.0289L22.8246 19.5155L22.9068 19.3678L22.0332 18.8813ZM21.951 19.0289L21.0773 18.5424C21.0798 18.5379 21.0851 18.5295 21.0939 18.5191C21.1027 18.5086 21.1134 18.4982 21.1252 18.4889L21.7426 19.2756L22.36 20.0622C22.5541 19.9099 22.7087 19.7236 22.8246 19.5155L21.951 19.0289ZM21.7426 19.2756L21.1252 18.4889L20.999 18.588L21.6164 19.3746L22.2338 20.1613L22.36 20.0622L21.7426 19.2756ZM21.6164 19.3746L20.999 18.588L20.8728 18.687L21.4902 19.4736L22.1076 20.2603L22.2338 20.1613L21.6164 19.3746ZM21.4902 19.4736L20.8728 18.687C20.8208 18.7278 20.7654 18.7662 20.7063 18.802L21.2247 19.6571L21.7432 20.5122C21.8699 20.4354 21.9914 20.3515 22.1076 20.2603L21.4902 19.4736ZM21.2247 19.6571L20.7063 18.802L20.5669 18.8865L21.0854 19.7416L21.6039 20.5967L21.7432 20.5122L21.2247 19.6571ZM21.0854 19.7416L20.5669 18.8865L20.4276 18.971L20.9461 19.8261L21.4646 20.6812L21.6039 20.5967L21.0854 19.7416ZM20.9461 19.8261L20.4276 18.971C20.5216 18.914 20.6051 18.895 20.6525 18.8889C20.6975 18.8831 20.7166 18.8879 20.6992 18.8855L20.5596 19.8757L20.42 20.8659C20.6974 20.905 21.0935 20.9062 21.4646 20.6812L20.9461 19.8261ZM20.5596 19.8757L20.6992 18.8855L20.4521 18.8506L20.3124 19.8408L20.1728 20.831L20.42 20.8659L20.5596 19.8757ZM20.3124 19.8408L20.4521 18.8506L20.2049 18.8158L20.0653 19.806L19.9256 20.7962L20.1728 20.831L20.3124 19.8408ZM20.0653 19.806L20.2049 18.8158C19.8783 18.7697 19.2697 18.7923 18.8951 19.3523L19.7264 19.9083L20.5576 20.4642C20.4496 20.6256 20.2938 20.7268 20.1459 20.7715C20.0188 20.8098 19.9319 20.7971 19.9256 20.7962L20.0653 19.806ZM19.7264 19.9083L18.8951 19.3523L18.8034 19.4895L19.6346 20.0454L20.4659 20.6013L20.5576 20.4642L19.7264 19.9083ZM19.6346 20.0454L18.8034 19.4895L18.7117 19.6266L19.5429 20.1825L20.3742 20.7385L20.4659 20.6013L19.6346 20.0454ZM19.5429 20.1825L18.7117 19.6266C18.5072 19.9323 18.4519 20.2673 18.4477 20.5387L19.4476 20.5543L20.4474 20.5698C20.4477 20.5535 20.4492 20.5637 20.4418 20.5926C20.4341 20.6226 20.4157 20.6763 20.3742 20.7385L19.5429 20.1825ZM19.4476 20.5543L18.4477 20.5387L18.444 20.7733L19.4439 20.7888L20.4438 20.8044L20.4474 20.5698L19.4476 20.5543ZM19.4439 20.7888L18.444 20.7733L18.4404 21.0078L19.4402 21.0234L20.4401 21.039L20.4438 20.8044L19.4439 20.7888ZM19.4402 21.0234L18.4404 21.0078C18.4404 21.0065 18.4406 20.9958 18.4435 20.9776C18.4463 20.9594 18.4522 20.9312 18.4645 20.8961C18.4903 20.8226 18.5421 20.7256 18.6363 20.6374L19.3198 21.3673L20.0033 22.0973C20.3557 21.7673 20.4354 21.3398 20.4401 21.039L19.4402 21.0234ZM19.3198 21.3673L18.6363 20.6374L18.5195 20.7468L19.203 21.4767L19.8865 22.2067L20.0033 22.0973L19.3198 21.3673ZM19.203 21.4767L18.5195 20.7468L18.4027 20.8562L19.0862 21.5861L19.7697 22.316L19.8865 22.2067L19.203 21.4767ZM19.0862 21.5861L18.4027 20.8562C18.5203 20.746 18.6389 20.7237 18.6716 20.7204L18.7717 21.7154L18.8718 22.7104C19.1681 22.6805 19.4963 22.5721 19.7697 22.316L19.0862 21.5861ZM18.7717 21.7154L18.6716 20.7204L18.4739 20.7403L18.574 21.7353L18.6741 22.7302L18.8718 22.7104L18.7717 21.7154ZM18.574 21.7353L18.4739 20.7403L18.2762 20.7602L18.3763 21.7551L18.4764 22.7501L18.6741 22.7302L18.574 21.7353ZM18.3763 21.7551L18.2762 20.7602C18.0543 20.7825 17.8273 20.836 17.6088 20.9363L18.0262 21.845L18.4435 22.7538C18.4283 22.7608 18.4346 22.7543 18.4764 22.7501L18.3763 21.7551ZM18.0262 21.845L17.6088 20.9363L17.4564 21.0063L17.8738 21.915L18.2911 22.8238L18.4435 22.7538L18.0262 21.845ZM17.8738 21.915L17.4564 21.0063L17.304 21.0763L17.7214 21.985L18.1387 22.8938L18.2911 22.8238L17.8738 21.915ZM17.7214 21.985L17.304 21.0763C17.1649 21.1401 17.0306 21.2122 16.9014 21.2929L17.4311 22.1411L17.9608 22.9893C18.0154 22.9552 18.0746 22.9232 18.1387 22.8938L17.7214 21.985ZM17.4311 22.1411L16.9014 21.2929L16.7636 21.379L17.2932 22.2272L17.8229 23.0754L17.9608 22.9893L17.4311 22.1411ZM17.2932 22.2272L16.7636 21.379L16.6257 21.4651L17.1554 22.3133L17.685 23.1615L17.8229 23.0754L17.2932 22.2272ZM17.1554 22.3133L16.6257 21.4651C16.538 21.5198 16.4498 21.574 16.3611 21.6276L16.878 22.4836L17.3949 23.3396C17.4922 23.2809 17.5889 23.2215 17.685 23.1615L17.1554 22.3133ZM16.878 22.4836L16.3611 21.6276L16.2216 21.7118L16.7385 22.5679L17.2554 23.4239L17.3949 23.3396L16.878 22.4836ZM16.7385 22.5679L16.2216 21.7118L16.082 21.7961L16.5989 22.6521L17.1159 23.5081L17.2554 23.4239L16.7385 22.5679ZM16.5989 22.6521L16.082 21.7961C15.8273 21.9499 15.6307 22.1648 15.4966 22.4172L16.3796 22.8866L17.2626 23.356C17.2503 23.379 17.2316 23.4072 17.2046 23.4361C17.1774 23.4651 17.1469 23.4894 17.1159 23.5081L16.5989 22.6521ZM16.3796 22.8866L15.4966 22.4172L15.4167 22.5675L16.2997 23.0369L17.1827 23.5062L17.2626 23.356L16.3796 22.8866ZM16.2997 23.0369L15.4167 22.5675L15.3368 22.7177L16.2198 23.1871L17.1028 23.6565L17.1827 23.5062L16.2997 23.0369ZM16.2198 23.1871L15.3368 22.7177C15.345 22.7023 15.3581 22.6819 15.3775 22.66C15.3971 22.6379 15.4195 22.6181 15.4434 22.6019L16.0065 23.4283L16.5696 24.2547C16.7998 24.0978 16.9777 23.8919 17.1028 23.6565L16.2198 23.1871ZM16.0065 23.4283L15.4434 22.6019L15.3099 22.6929L15.873 23.5192L16.4361 24.3456L16.5696 24.2547L16.0065 23.4283ZM15.873 23.5192L15.3099 22.6929L15.1764 22.7838L15.7395 23.6102L16.3027 24.4366L16.4361 24.3456L15.873 23.5192ZM15.7395 23.6102L15.1764 22.7838C15.1729 22.7862 15.1602 22.7942 15.132 22.8034L15.4391 23.755L15.7463 24.7067C15.9406 24.644 16.1283 24.5554 16.3027 24.4366L15.7395 23.6102ZM15.4391 23.755L15.132 22.8034L14.965 22.8572L15.2721 23.8089L15.5793 24.7606L15.7463 24.7067L15.4391 23.755ZM15.2721 23.8089L14.965 22.8572L14.798 22.9111L15.1052 23.8628L15.4123 24.8145L15.5793 24.7606L15.2721 23.8089ZM15.1052 23.8628L14.798 22.9111C14.4948 23.009 14.2398 23.2198 14.0905 23.5152C13.9583 23.7769 13.9429 24.0366 13.9517 24.2175L14.9505 24.1689L15.9493 24.1202C15.9499 24.133 15.9562 24.2576 15.8755 24.4173C15.7778 24.6107 15.6042 24.7525 15.4123 24.8145L15.1052 23.8628ZM14.9505 24.1689L13.9517 24.2175L13.964 24.4698L14.9628 24.4211L15.9616 24.3724L15.9493 24.1202L14.9505 24.1689ZM14.9628 24.4211L13.964 24.4698L13.9763 24.722L14.9751 24.6733L15.9739 24.6246L15.9616 24.3724L14.9628 24.4211ZM14.9751 24.6733L13.9763 24.722C13.9784 24.7662 13.9772 24.7965 13.9755 24.8147C13.9737 24.833 13.972 24.8354 13.9748 24.8259L14.9347 25.1059L15.8947 25.3859C15.9696 25.1294 15.9858 24.8681 15.9739 24.6246L14.9751 24.6733ZM14.9347 25.1059L13.9748 24.8259L13.9221 25.0063L14.8821 25.2863L15.8421 25.5663L15.8947 25.3859L14.9347 25.1059ZM14.8821 25.2863L13.9221 25.0063L13.8695 25.1867L14.8295 25.4667L15.7895 25.7467L15.8421 25.5663L14.8821 25.2863ZM14.8295 25.4667L13.8695 25.1867C13.8893 25.1186 13.934 25.0184 14.0262 24.9223C14.1204 24.8241 14.2283 24.7679 14.319 24.7406L14.6073 25.6981L14.8957 26.6557C15.3559 26.5171 15.6666 26.1681 15.7895 25.7467L14.8295 25.4667ZM14.6073 25.6981L14.319 24.7406L14.1495 24.7917L14.4378 25.7492L14.7262 26.7067L14.8957 26.6557L14.6073 25.6981ZM14.4378 25.7492L14.1495 24.7917L13.9799 24.8427L14.2683 25.8002L14.5566 26.7578L14.7262 26.7067L14.4378 25.7492ZM14.2683 25.8002L13.9799 24.8427C13.7734 24.9049 13.5732 24.998 13.389 25.1287L13.9673 25.9445L14.5457 26.7603C14.5417 26.7631 14.5396 26.764 14.5405 26.7636C14.5415 26.7631 14.5465 26.7608 14.5566 26.7578L14.2683 25.8002ZM13.9673 25.9445L13.389 25.1287L13.2575 25.2219L13.8359 26.0377L14.4142 26.8534L14.5457 26.7603L13.9673 25.9445ZM13.8359 26.0377L13.2575 25.2219L13.1261 25.3151L13.7044 26.1308L14.2828 26.9466L14.4142 26.8534L13.8359 26.0377ZM13.7044 26.1308L13.1261 25.3151C12.9633 25.4305 12.8185 25.5667 12.6933 25.7216L13.4712 26.35L14.2491 26.9784C14.2597 26.9654 14.2703 26.9555 14.2828 26.9466L13.7044 26.1308ZM13.4712 26.35L12.6933 25.7216L12.5915 25.8476L13.3694 26.476L14.1473 27.1044L14.2491 26.9784L13.4712 26.35ZM13.3694 26.476L12.5915 25.8476L12.4897 25.9736L13.2676 26.602L14.0455 27.2304L14.1473 27.1044L13.3694 26.476ZM13.2676 26.602L12.4897 25.9736C12.4452 26.0288 12.3984 26.0805 12.3493 26.1289L13.0519 26.8405L13.7544 27.5522C13.8573 27.4506 13.9544 27.3432 14.0455 27.2304L13.2676 26.602ZM13.0519 26.8405L12.3493 26.1289L12.2354 26.2414L12.9379 26.9531L13.6404 27.6647L13.7544 27.5522L13.0519 26.8405ZM12.9379 26.9531L12.2354 26.2414L12.1214 26.3539L12.8239 27.0656L13.5265 27.7772L13.6404 27.6647L12.9379 26.9531ZM12.8239 27.0656L12.1214 26.3539C12.2222 26.2544 12.3346 26.2019 12.4238 26.1782C12.5056 26.1566 12.5585 26.1612 12.5624 26.1615L12.4759 27.1578L12.3895 28.154C12.6981 28.1808 13.1595 28.1395 13.5265 27.7772L12.8239 27.0656ZM12.4759 27.1578L12.5624 26.1615L12.3283 26.1412L12.2419 27.1375L12.1555 28.1337L12.3895 28.154L12.4759 27.1578ZM12.2419 27.1375L12.3283 26.1412L12.0943 26.1209L12.0079 27.1172L11.9214 28.1134L12.1555 28.1337L12.2419 27.1375ZM12.0079 27.1172L12.0943 26.1209C11.8808 26.1024 11.5332 26.1204 11.2173 26.3635C10.8856 26.6188 10.7812 26.9721 10.7579 27.2192L11.7535 27.313L12.7491 27.4067C12.7394 27.5098 12.6841 27.7584 12.4372 27.9484C12.2061 28.1263 11.979 28.1184 11.9214 28.1134L12.0079 27.1172ZM11.7535 27.313L10.7579 27.2192L10.7376 27.4353L11.7332 27.5291L12.7287 27.6228L12.7491 27.4067L11.7535 27.313ZM11.7332 27.5291L10.7376 27.4353L10.7172 27.6514L11.7128 27.7452L12.7084 27.8389L12.7287 27.6228L11.7332 27.5291ZM11.7128 27.7452L10.7172 27.6514C10.7196 27.6256 10.7304 27.5491 10.7823 27.453C10.8387 27.3485 10.9283 27.2502 11.0454 27.1815L11.5515 28.044L12.0577 28.9064C12.5153 28.6378 12.6755 28.188 12.7084 27.8389L11.7128 27.7452ZM11.5515 28.044L11.0454 27.1815L10.9044 27.2643L11.4106 28.1267L11.9168 28.9891L12.0577 28.9064L11.5515 28.044ZM11.4106 28.1267L10.9044 27.2643L10.7635 27.347L11.2697 28.2094L11.7759 29.0718L11.9168 28.9891L11.4106 28.1267ZM11.2697 28.2094L10.7635 27.347C10.5912 27.4481 10.4341 27.5717 10.295 27.7172L11.018 28.4081L11.7409 29.099C11.7496 29.0898 11.7603 29.081 11.7759 29.0718L11.2697 28.2094ZM11.018 28.4081L10.295 27.7172L10.1842 27.8331L10.9071 28.5241L11.63 29.215L11.7409 29.099L11.018 28.4081ZM10.9071 28.5241L10.1842 27.8331L10.0733 27.9491L10.7963 28.64L11.5192 29.331L11.63 29.215L10.9071 28.5241ZM10.7963 28.64L10.0733 27.9491C10.0494 27.9741 10.0229 27.9966 9.99266 28.017L10.5514 28.8463L11.1101 29.6757C11.2586 29.5757 11.3953 29.4606 11.5192 29.331L10.7963 28.64ZM10.5514 28.8463L9.99266 28.017L9.85861 28.1073L10.4173 28.9366L10.976 29.766L11.1101 29.6757L10.5514 28.8463ZM10.4173 28.9366L9.85861 28.1073L9.72456 28.1976L10.2833 29.0269L10.842 29.8563L10.976 29.766L10.4173 28.9366ZM10.2833 29.0269L9.72456 28.1976C9.79487 28.1502 9.84663 28.145 9.84156 28.1456L9.95348 29.1393L10.0654 30.133C10.3213 30.1042 10.5929 30.0241 10.842 29.8563L10.2833 29.0269ZM9.95348 29.1393L9.84156 28.1456L9.64581 28.1676L9.75774 29.1613L9.86966 30.155L10.0654 30.133L9.95348 29.1393ZM9.75774 29.1613L9.64581 28.1676L9.45007 28.1897L9.562 29.1834L9.67392 30.1771L9.86966 30.155L9.75774 29.1613ZM9.562 29.1834L9.45007 28.1897C9.28069 28.2087 9.07495 28.2679 8.8824 28.4118C8.68523 28.5591 8.5612 28.7509 8.49313 28.9387C8.37324 29.2694 8.42625 29.5819 8.46328 29.7452L9.43851 29.524L10.4137 29.3028C10.4026 29.2536 10.4521 29.4032 10.3734 29.6204C10.3259 29.7514 10.2336 29.8988 10.0793 30.0141C9.92971 30.1258 9.77805 30.1654 9.67392 30.1771L9.562 29.1834ZM9.43851 29.524L8.46328 29.7452L8.53554 30.0637L9.51077 29.8425L10.486 29.6213L10.4137 29.3028L9.43851 29.524ZM9.51077 29.8425L8.53554 30.0637L8.60779 30.3823L9.58302 30.1611L10.5582 29.9399L10.486 29.6213L9.51077 29.8425ZM9.58302 30.1611L8.60779 30.3823C8.60655 30.3768 8.58564 30.2907 8.6029 30.1609C8.6221 30.0165 8.69957 29.7645 8.94829 29.5744C9.18321 29.395 9.42208 29.386 9.52401 29.3918C9.57949 29.395 9.62047 29.4036 9.64269 29.409C9.66569 29.4147 9.67906 29.4197 9.68112 29.4205L9.32787 30.356L8.97461 31.2915C9.07896 31.3309 9.23112 31.3783 9.40918 31.3885C9.58694 31.3988 9.88499 31.3757 10.1624 31.1637C10.4537 30.9412 10.557 30.6383 10.5854 30.4245C10.6119 30.2254 10.5836 30.0516 10.5582 29.9399L9.58302 30.1611ZM9.32787 30.356L9.68112 29.4205L9.3537 29.2969L9.00045 30.2324L8.6472 31.1679L8.97461 31.2915L9.32787 30.356ZM9.00045 30.2324L9.3537 29.2969L9.02629 29.1732L8.67304 30.1088L8.31979 31.0443L8.6472 31.1679L9.00045 30.2324ZM8.67304 30.1088L9.02629 29.1732C8.86589 29.1127 8.65096 29.0487 8.41313 29.0456C8.16301 29.0424 7.7926 29.1101 7.50212 29.4245L8.2366 30.1031L8.97109 30.7817C8.75329 31.0175 8.49196 31.0468 8.38731 31.0454C8.29497 31.0443 8.26191 31.0224 8.31979 31.0443L8.67304 30.1088ZM8.2366 30.1031L7.50212 29.4245L7.3931 29.5425L8.12758 30.2211L8.86207 30.8997L8.97109 30.7817L8.2366 30.1031ZM8.12758 30.2211L7.3931 29.5425L7.28408 29.6605L8.01856 30.3391L8.75305 31.0177L8.86207 30.8997L8.12758 30.2211ZM8.01856 30.3391L7.28408 29.6605C7.03013 29.9353 6.92592 30.2626 6.89119 30.5452L7.88373 30.6672L8.87626 30.7891C8.87596 30.7916 8.86164 30.9002 8.75305 31.0177L8.01856 30.3391ZM7.88373 30.6672L6.89119 30.5452L6.86538 30.7552L7.85791 30.8772L8.85044 30.9992L8.87626 30.7891L7.88373 30.6672ZM7.85791 30.8772L6.86538 30.7552L6.83956 30.9653L7.8321 31.0873L8.82463 31.2092L8.85044 30.9992L7.85791 30.8772ZM7.8321 31.0873L6.83956 30.9653C6.82609 31.0749 6.80859 31.1755 6.78774 31.2678L7.76315 31.4882L8.73856 31.7086C8.77522 31.5463 8.80368 31.3797 8.82463 31.2092L7.8321 31.0873ZM7.76315 31.4882L6.78774 31.2678L6.74461 31.4587L7.72002 31.6791L8.69543 31.8995L8.73856 31.7086L7.76315 31.4882ZM7.72002 31.6791L6.74461 31.4587L6.70147 31.6496L7.67689 31.87L8.6523 32.0904L8.69543 31.8995L7.72002 31.6791ZM7.67689 31.87L6.70147 31.6496C6.70825 31.6196 6.74091 31.5172 6.84882 31.421L7.51433 32.1674L8.17983 32.9138C8.44697 32.6756 8.58801 32.3749 8.6523 32.0904L7.67689 31.87ZM7.51433 32.1674L6.84882 31.421L6.7294 31.5275L7.3949 32.2739L8.0604 33.0202L8.17983 32.9138L7.51433 32.1674ZM7.3949 32.2739L6.7294 31.5275L6.60997 31.6339L7.27548 32.3803L7.94098 33.1267L8.0604 33.0202L7.3949 32.2739ZM7.27548 32.3803L6.60997 31.6339C6.49964 31.7323 6.39563 31.8373 6.29805 31.9485L7.04983 32.6079L7.80162 33.2673C7.84566 33.2171 7.89208 33.1703 7.94098 33.1267L7.27548 32.3803ZM7.04983 32.6079L6.29805 31.9485L6.19183 32.0696L6.94362 32.729L7.6954 33.3884L7.80162 33.2673L7.04983 32.6079ZM6.94362 32.729L6.19183 32.0696L6.08561 32.1907L6.8374 32.8501L7.58919 33.5095L7.6954 33.3884L6.94362 32.729ZM6.8374 32.8501L6.08561 32.1907C6.26449 31.9868 6.48503 31.9304 6.60824 31.9211C6.71254 31.9132 6.76251 31.9354 6.72501 31.9239L6.43355 32.8805L6.14208 33.8371C6.30301 33.8861 6.51949 33.9334 6.75841 33.9154C7.01625 33.896 7.33949 33.7942 7.58919 33.5095L6.8374 32.8501ZM6.43355 32.8805L6.72501 31.9239L6.42737 31.8333L6.13591 32.7898L5.84445 33.7464L6.14208 33.8371L6.43355 32.8805ZM6.13591 32.7898L6.42737 31.8333L6.12973 31.7426L5.83827 32.6991L5.54681 33.6557L5.84445 33.7464L6.13591 32.7898ZM5.83827 32.6991L6.12973 31.7426C5.96637 31.6928 5.67332 31.6242 5.34845 31.7094C4.92643 31.8202 4.63356 32.1392 4.52665 32.521L5.48963 32.7906L6.4526 33.0602C6.42362 33.1638 6.3622 33.2977 6.24171 33.4196C6.11933 33.5434 5.97834 33.6118 5.85613 33.6439C5.64748 33.6987 5.51175 33.645 5.54681 33.6557L5.83827 32.6991ZM5.48963 32.7906L4.52665 32.521L4.47565 32.7032L5.43863 32.9728L6.4016 33.2424L6.4526 33.0602L5.48963 32.7906ZM5.43863 32.9728L4.47565 32.7032L4.42465 32.8854L5.38762 33.155L6.3506 33.4246L6.4016 33.2424L5.43863 32.9728ZM5.38762 33.155L4.42465 32.8854C4.44095 32.8272 4.478 32.7378 4.55681 32.6478C4.63801 32.5551 4.7353 32.4942 4.82576 32.4605L5.17534 33.3974L5.52492 34.3343C5.96458 34.1702 6.24036 33.8184 6.3506 33.4246L5.38762 33.155ZM5.17534 33.3974L4.82576 32.4605L4.66448 32.5206L5.01406 33.4575L5.36364 34.3945L5.52492 34.3343L5.17534 33.3974ZM5.01406 33.4575L4.66448 32.5206L4.5032 32.5808L4.85278 33.5177L5.20236 34.4546L5.36364 34.3945L5.01406 33.4575ZM4.85278 33.5177L4.5032 32.5808C4.09312 32.7338 3.81345 33.0523 3.68535 33.432L4.63288 33.7517L5.58042 34.0713C5.56058 34.1301 5.52058 34.2117 5.4458 34.2912C5.36963 34.3722 5.282 34.4249 5.20236 34.4546L4.85278 33.5177ZM4.63288 33.7517L3.68535 33.432L3.62673 33.6058L4.57427 33.9254L5.5218 34.2451L5.58042 34.0713L4.63288 33.7517ZM4.57427 33.9254L3.62673 33.6058L3.56811 33.7795L4.51565 34.0992L5.46318 34.4188L5.5218 34.2451L4.57427 33.9254ZM4.51565 34.0992L3.56811 33.7795C3.58173 33.7392 3.60879 33.6802 3.6594 33.618C3.71124 33.5542 3.77478 33.5031 3.84185 33.4675L4.31137 34.3504L4.78089 35.2333C5.12929 35.048 5.35239 34.7473 5.46318 34.4188L4.51565 34.0992ZM4.31137 34.3504L3.84185 33.4675L3.69619 33.5449L4.16571 34.4279L4.63523 35.3108L4.78089 35.2333L4.31137 34.3504ZM4.16571 34.4279L3.69619 33.5449L3.55053 33.6224L4.02005 34.5053L4.48957 35.3882L4.63523 35.3108L4.16571 34.4279ZM4.02005 34.5053L3.55053 33.6224C2.97771 33.927 2.87306 34.5016 2.87816 34.8405L3.87805 34.8254L4.87793 34.8104C4.87811 34.8218 4.87892 34.9099 4.82582 35.0296C4.76479 35.1671 4.65102 35.3024 4.48957 35.3882L4.02005 34.5053ZM3.87805 34.8254L2.87816 34.8405L2.88181 35.0831L3.8817 35.0681L4.88159 35.053L4.87793 34.8104L3.87805 34.8254ZM3.8817 35.0681L2.88181 35.0831L2.88547 35.3258L3.88535 35.3107L4.88524 35.2957L4.88159 35.053L3.8817 35.0681ZM3.88535 35.3107L2.88547 35.3258C2.88462 35.2694 2.89012 35.1331 2.96822 34.9726C3.05715 34.7899 3.21211 34.6357 3.40952 34.5495C3.5844 34.4731 3.73242 34.4758 3.79804 34.4814C3.83457 34.4845 3.86146 34.4899 3.87665 34.4934C3.89216 34.497 3.90067 34.5 3.90121 34.5002L3.57612 35.4458L3.25104 36.3915C3.39511 36.4411 3.79119 36.5653 4.21023 36.3822C4.78964 36.1291 4.88941 35.5723 4.88524 35.2957L3.88535 35.3107ZM3.57612 35.4458L3.90121 34.5002L3.58833 34.3926L3.26324 35.3383L2.93816 36.284L3.25104 36.3915L3.57612 35.4458ZM3.26324 35.3383L3.58833 34.3926L3.27544 34.285L2.95036 35.2307L2.62527 36.1764L2.93816 36.284L3.26324 35.3383ZM2.95036 35.2307L3.27544 34.285C3.14143 34.239 2.69162 34.0917 2.23959 34.3406C1.6527 34.6638 1.64697 35.2714 1.66669 35.4824L2.66235 35.3893L3.65801 35.2963C3.66114 35.3298 3.69512 35.8223 3.20424 36.0926C3.00903 36.2001 2.83317 36.2033 2.75328 36.1984C2.70955 36.1957 2.67691 36.1896 2.65809 36.1853C2.63885 36.181 2.6275 36.1772 2.62527 36.1764L2.95036 35.2307ZM2.66235 35.3893L1.66669 35.4824L1.69156 35.7485L2.68722 35.6554L3.68288 35.5624L3.65801 35.2963L2.66235 35.3893ZM2.68722 35.6554L1.69156 35.7485L1.71644 36.0146L2.7121 35.9216L3.70776 35.8285L3.68288 35.5624L2.68722 35.6554ZM2.7121 35.9216L1.71644 36.0146C1.71642 36.0144 1.70134 35.8871 1.77913 35.7173C1.82162 35.6246 1.88896 35.5265 1.98713 35.4419C2.08492 35.3577 2.18957 35.3073 2.28185 35.2798L2.56701 36.2383L2.85217 37.1968C3.17951 37.0994 3.45064 36.8707 3.5974 36.5503C3.72355 36.275 3.72436 36.0062 3.70776 35.8285L2.7121 35.9216ZM2.56701 36.2383L2.28185 35.2798L2.11188 35.3304L2.39705 36.2889L2.68221 37.2473L2.85217 37.1968L2.56701 36.2383ZM2.39705 36.2889L2.11188 35.3304L1.94192 35.3809L2.22708 36.3394L2.51224 37.2979L2.68221 37.2473L2.39705 36.2889ZM2.22708 36.3394L1.94192 35.3809C1.87228 35.4017 1.78733 35.429 1.70589 35.4635C1.6669 35.48 1.60127 35.5095 1.5295 35.5544C1.49526 35.5758 1.28882 35.6996 1.15532 35.9567L2.04284 36.4175L2.93035 36.8783C2.85694 37.0197 2.76665 37.1096 2.71805 37.1533C2.66484 37.2012 2.6176 37.2329 2.58992 37.2502C2.53587 37.284 2.49446 37.3015 2.48619 37.305C2.46616 37.3135 2.46857 37.3109 2.51224 37.2979L2.22708 36.3394ZM2.04284 36.4175L1.15532 35.9567L1.14105 35.9842L2.02856 36.445L2.91607 36.9058L2.93035 36.8783L2.04284 36.4175ZM2.02856 36.445L2.28387 37.4119L2.3295 37.3998L2.07419 36.4329L1.81887 35.4661L1.77324 35.4781L2.02856 36.445ZM2.07419 36.4329L1.40365 35.6911L1.32946 35.7581L2 36.5L2.67054 37.2419L2.74473 37.1748L2.07419 36.4329Z" fill="#34414F"/>
</svg>
